<?xml version="1.0" encoding="UTF-8"?>
<!-- Generator: visioncortex VTracer 0.6.1 -->
<svg version="1.1" xmlns="http://www.w3.org/2000/svg" width="1280" height="1280">
<path d="M0 0 C0.6928315 -0.00453111 1.385663 -0.00906223 2.09948939 -0.01373065 C4.41467645 -0.02636302 6.72962793 -0.02475505 9.04484558 -0.02310181 C10.70746157 -0.02908782 12.37007477 -0.03589354 14.03268433 -0.04345703 C18.54519306 -0.06111758 23.05762592 -0.06581246 27.57016587 -0.0670886 C30.39095933 -0.06851082 33.21173353 -0.07278176 36.0325222 -0.07808304 C45.87778827 -0.09658402 55.7230002 -0.10475363 65.56828308 -0.10317993 C74.73815161 -0.10197875 83.90778467 -0.12307626 93.07759362 -0.15466726 C100.95632177 -0.18084078 108.83497307 -0.19154676 116.71374434 -0.19026911 C121.41670776 -0.18975976 126.11946194 -0.1954279 130.82238197 -0.21662521 C135.24740694 -0.23602555 139.67202347 -0.23611988 144.09706306 -0.22159195 C145.71755827 -0.21950492 147.33807916 -0.22419846 148.95853043 -0.23631287 C158.92207671 -0.30595226 165.8601478 0.04239126 173.811203 6.57992554 C179.17003438 13.16363266 179.43445228 19.10984383 179.38638306 27.30561829 C179.39176859 28.40851387 179.39715413 29.51140946 179.40270287 30.64772612 C179.41699596 34.33870013 179.40987515 38.02931619 179.40275574 41.7203064 C179.40845858 44.36843499 179.41532198 47.01653799 179.42355347 49.66465759 C179.4407314 56.10806623 179.44158361 62.5513773 179.43634056 68.99480288 C179.43229585 74.23294528 179.43374599 79.47105888 179.43908882 84.70919991 C179.43983724 85.45528923 179.44058567 86.20137855 179.44135677 86.97007664 C179.44288827 88.48585006 179.44442662 90.00162347 179.44597173 91.51739687 C179.45969306 105.72528537 179.45426161 119.93311877 179.44278652 134.141006 C179.43285387 147.13292942 179.44579598 160.12471043 179.46972071 173.11661189 C179.49411554 186.46459343 179.50371869 199.81250865 179.49706799 213.16051203 C179.4935767 220.6512644 179.49580187 228.14190725 179.51331902 235.63264275 C179.52804579 242.00910877 179.52867031 248.38538814 179.5112481 254.76185053 C179.50273956 258.01357882 179.50275548 261.26490538 179.51589966 264.51662827 C179.52907495 268.04548352 179.51759125 271.57343293 179.49990845 275.10224915 C179.50951345 276.12472762 179.51911846 277.14720609 179.52901453 278.20066875 C179.44908622 285.95487171 177.60559556 291.09688054 172.686203 297.07992554 C167.3330596 301.43713528 162.56758881 302.64172483 155.75689697 302.65510559 C155.06235662 302.66049113 154.36781628 302.66587667 153.65222925 302.6714254 C151.34313833 302.68564343 149.03462568 302.67861688 146.72550964 302.67147827 C145.06259707 302.67718508 143.39968841 302.68415054 141.73678589 302.692276 C137.23261797 302.71018811 132.72864507 302.70904272 128.22445226 302.70333362 C124.45956858 302.700239 120.69472221 302.70633724 116.92984384 302.71237236 C108.04594554 302.72640953 99.16214342 302.72486297 90.27824402 302.71347046 C81.12309056 302.7019893 71.96823004 302.7160667 62.81311518 302.74286693 C54.94282951 302.76504065 47.07263568 302.77165756 39.20232099 302.76579052 C34.50610712 302.76242383 29.81008102 302.7648169 25.11389351 302.78204155 C20.69703101 302.79753533 16.28060172 302.79352829 11.86375618 302.7747364 C10.24649131 302.77105727 8.62919416 302.77413926 7.01195908 302.78462219 C-2.27112871 302.84018317 -9.6715155 302.86667713 -17.0247345 296.52133179 C-17.69375793 295.68408569 -17.69375793 295.68408569 -18.376297 294.82992554 C-18.83778137 294.2743396 -19.29926575 293.71875366 -19.7747345 293.14633179 C-23.38978723 287.60862362 -23.2672918 282.56764924 -23.1966095 276.15414429 C-23.19236465 274.69981743 -23.19236465 274.69981743 -23.18803406 273.21611023 C-23.17686691 270.12892148 -23.15176852 267.04202614 -23.126297 263.95492554 C-23.11626273 261.85792453 -23.10713766 259.76091896 -23.09895325 257.66390991 C-23.07864314 252.53154532 -23.03948756 247.39981267 -23.001297 242.26742554 C-35.541297 242.26742554 -48.081297 242.26742554 -61.001297 242.26742554 C-61.331297 245.56742554 -61.661297 248.86742554 -62.001297 252.26742554 C-62.8703331 258.4625344 -64.49821235 264.03519063 -66.95051575 269.78695679 C-67.62148422 271.37084148 -68.25357498 272.97214573 -68.83332825 274.59164429 C-73.0512483 286.24388919 -80.31635375 298.41586468 -89.001297 307.26742554 C-89.661297 307.26742554 -90.321297 307.26742554 -91.001297 307.26742554 C-91.001297 307.92742554 -91.001297 308.58742554 -91.001297 309.26742554 C-92.376297 310.89242554 -92.376297 310.89242554 -94.001297 312.26742554 C-94.661297 312.26742554 -95.321297 312.26742554 -96.001297 312.26742554 C-96.001297 312.92742554 -96.001297 313.58742554 -96.001297 314.26742554 C-97.8385313 315.90933925 -99.66703955 317.40742947 -101.626297 318.89242554 C-102.50112732 319.55794434 -102.50112732 319.55794434 -103.39363098 320.23690796 C-116.83663534 330.24429856 -132.1961897 337.82296939 -148.751297 340.82992554 C-149.44996887 340.95923462 -150.14864075 341.0885437 -150.8684845 341.22177124 C-156.2238655 342.18699962 -161.57022935 342.88881746 -167.001297 343.26742554 C-166.80793762 343.82430054 -166.61457825 344.38117554 -166.4153595 344.95492554 C-165.13756043 348.69976241 -163.91748689 352.41632226 -163.001297 356.26742554 C-162.31187375 359.16300319 -161.46572386 361.95129908 -160.501297 364.76742554 C-159.31600936 368.22846542 -158.37929023 371.67985395 -157.532547 375.23617554 C-156.95258951 377.45366003 -156.24385176 379.59916564 -155.501297 381.76742554 C-154.31600936 385.22846542 -153.37929023 388.67985395 -152.532547 392.23617554 C-151.95258951 394.45366003 -151.24385176 396.59916564 -150.501297 398.76742554 C-149.31600936 402.22846542 -148.37929023 405.67985395 -147.532547 409.23617554 C-146.95258951 411.45366003 -146.24385176 413.59916564 -145.501297 415.76742554 C-144.31600936 419.22846542 -143.37929023 422.67985395 -142.532547 426.23617554 C-141.95258951 428.45366003 -141.24385176 430.59916564 -140.501297 432.76742554 C-139.31600936 436.22846542 -138.37929023 439.67985395 -137.532547 443.23617554 C-136.95258951 445.45366003 -136.24385176 447.59916564 -135.501297 449.76742554 C-134.31600936 453.22846542 -133.37929023 456.67985395 -132.532547 460.23617554 C-131.95258951 462.45366003 -131.24385176 464.59916564 -130.501297 466.76742554 C-129.31600936 470.22846542 -128.37929023 473.67985395 -127.532547 477.23617554 C-126.95258951 479.45366003 -126.24385176 481.59916564 -125.501297 483.76742554 C-124.31600936 487.22846542 -123.37929023 490.67985395 -122.532547 494.23617554 C-121.95258951 496.45366003 -121.24385176 498.59916564 -120.501297 500.76742554 C-119.31600936 504.22846542 -118.37929023 507.67985395 -117.532547 511.23617554 C-116.95258951 513.45366003 -116.24385176 515.59916564 -115.501297 517.76742554 C-114.31600936 521.22846542 -113.37929023 524.67985395 -112.532547 528.23617554 C-111.95258951 530.45366003 -111.24385176 532.59916564 -110.501297 534.76742554 C-109.31600936 538.22846542 -108.37929023 541.67985395 -107.532547 545.23617554 C-106.95258951 547.45366003 -106.24385176 549.59916564 -105.501297 551.76742554 C-104.31600936 555.22846542 -103.37929023 558.67985395 -102.532547 562.23617554 C-101.95258951 564.45366003 -101.24385176 566.59916564 -100.501297 568.76742554 C-99.31600936 572.22846542 -98.37929023 575.67985395 -97.532547 579.23617554 C-96.95258951 581.45366003 -96.24385176 583.59916564 -95.501297 585.76742554 C-94.31600936 589.22846542 -93.37929023 592.67985395 -92.532547 596.23617554 C-91.95258951 598.45366003 -91.24385176 600.59916564 -90.501297 602.76742554 C-89.31251903 606.23865719 -88.37194672 609.69905647 -87.52864075 613.26742554 C-86.98661164 615.32312112 -86.29347979 617.27119488 -85.563797 619.26742554 C-80.63443894 634.14660324 -80.56995237 648.87996502 -80.61361694 664.38449097 C-80.60943854 666.80973383 -80.60395826 669.23497473 -80.59729713 671.66021204 C-80.58589033 676.90984629 -80.58368974 682.15939901 -80.58984756 687.40903854 C-80.5989797 695.21531716 -80.59087412 703.02151377 -80.57955632 710.82778613 C-80.55993686 724.77164842 -80.55753258 738.71547345 -80.56275153 752.65934626 C-80.56731458 764.85710565 -80.56670212 777.05485033 -80.56091118 789.25260925 C-80.56015431 790.89087598 -80.55939833 792.52914272 -80.55864323 794.16740945 C-80.55749801 796.63626446 -80.55634813 799.10511947 -80.55518399 801.57397448 C-80.54448727 824.50990654 -80.53974572 847.44583371 -80.54765415 870.38176727 C-80.54809991 871.67731444 -80.54809991 871.67731444 -80.54855468 872.99903427 C-80.55100346 880.01229196 -80.55361512 887.02554959 -80.55623881 894.03880722 C-80.56634995 921.41809649 -80.55796604 948.79732449 -80.53474426 976.17660522 C-80.50868148 1006.95512237 -80.49582023 1037.73360263 -80.50293201 1068.51213121 C-80.50364807 1071.79234345 -80.50432245 1075.07255569 -80.50497246 1078.35276794 C-80.50514227 1079.16041074 -80.50531208 1079.96805353 -80.50548703 1080.80017034 C-80.50779069 1092.99540037 -80.49981031 1105.19059614 -80.48668098 1117.38581848 C-80.47178526 1131.2462808 -80.47090642 1145.10666276 -80.4887519 1158.96712333 C-80.49832764 1166.72406282 -80.49685394 1174.48081494 -80.47951721 1182.23774199 C-80.46781845 1188.02559646 -80.47697513 1193.81326671 -80.49433958 1199.60110003 C-80.4981217 1201.94529688 -80.4951145 1204.28951627 -80.48472793 1206.63369316 C-80.47163232 1209.81479516 -80.48307586 1212.99489828 -80.50072575 1216.17595673 C-80.49107523 1217.09051349 -80.48142472 1218.00507025 -80.47148177 1218.94734085 C-80.55582716 1226.32799013 -82.63921875 1231.39462766 -87.313797 1237.07992554 C-94.93871867 1243.28625713 -102.5950566 1242.69367143 -112.05209255 1242.64774227 C-113.60977284 1242.65117626 -115.16745069 1242.65592337 -116.72512344 1242.66186324 C-121.01755732 1242.67440029 -125.30979306 1242.6682106 -129.60222795 1242.65902956 C-134.26752905 1242.65233403 -138.93279549 1242.66297869 -143.59808928 1242.6714254 C-151.77864129 1242.68381621 -159.95913597 1242.68499435 -168.13969421 1242.67887497 C-180.30434316 1242.66979956 -192.46893891 1242.67780332 -204.63358377 1242.68916621 C-226.35754909 1242.70885661 -248.08149058 1242.71117601 -269.80546269 1242.70597101 C-288.81683029 1242.70141805 -307.82818844 1242.70200774 -326.83955574 1242.70781136 C-329.38735424 1242.70856821 -331.93515274 1242.70932419 -334.48295124 1242.7100793 C-338.32200566 1242.71122446 -342.16106008 1242.71237434 -346.0001145 1242.71353854 C-381.70325015 1242.72424732 -417.4063827 1242.72899637 -453.109519 1242.72106838 C-453.78257881 1242.72092008 -454.45563861 1242.72077177 -455.14909417 1242.72061897 C-462.65451654 1242.71895995 -470.15993888 1242.71721037 -477.66536122 1242.71542596 C-478.34299739 1242.71526494 -479.02063356 1242.71510391 -479.71880416 1242.71493801 C-485.21851817 1242.71363019 -485.21851817 1242.71363019 -487.94005474 1242.71297682 C-531.28950435 1242.7025842 -574.63891337 1242.71035368 -617.98835754 1242.73397827 C-628.91194877 1242.73992159 -639.83554001 1242.74581312 -650.75913143 1242.7513876 C-651.43172361 1242.75173137 -652.10431579 1242.75207514 -652.79728956 1242.75242932 C-689.10262259 1242.77086722 -725.40795518 1242.7711809 -761.71329218 1242.76579052 C-766.81860228 1242.76507443 -771.92391238 1242.76440005 -777.02922249 1242.76375008 C-778.28632454 1242.76358027 -779.54342659 1242.76341046 -780.83862264 1242.7632355 C-799.83946525 1242.76092967 -818.8402859 1242.76892302 -837.84112358 1242.78204155 C-859.44222941 1242.79692855 -881.04328368 1242.79782851 -902.64438837 1242.77997064 C-914.7404039 1242.77038318 -926.83629929 1242.77189227 -938.93230689 1242.78920533 C-947.00513913 1242.79965648 -955.07787941 1242.7956487 -963.15070253 1242.77972529 C-967.75491511 1242.77105273 -972.35889145 1242.76876777 -976.96309232 1242.78399461 C-981.15022111 1242.79771193 -985.33691008 1242.79308238 -989.52401285 1242.77370942 C-991.03069579 1242.76996824 -992.53741397 1242.7729507 -994.04406517 1242.7834225 C-1002.97727353 1242.84124183 -1009.953823 1242.62306429 -1017.0247345 1236.52133179 C-1017.69375793 1235.68408569 -1017.69375793 1235.68408569 -1018.376297 1234.82992554 C-1018.83778137 1234.2743396 -1019.29926575 1233.71875366 -1019.7747345 1233.14633179 C-1023.32392271 1227.709518 -1023.28474544 1222.78600554 -1023.25297928 1216.48872566 C-1023.25588616 1215.49228989 -1023.25879304 1214.49585412 -1023.26178801 1213.46922332 C-1023.2691228 1210.10958926 -1023.26212837 1206.75013585 -1023.25526428 1203.39050293 C-1023.25756734 1200.96579293 -1023.26074282 1198.54108363 -1023.26471877 1196.1163758 C-1023.27134475 1190.83385304 -1023.27171849 1185.5513842 -1023.26662445 1180.26886368 C-1023.25906997 1172.41356556 -1023.26292153 1164.558302 -1023.26904107 1156.70300412 C-1023.27958281 1142.67416665 -1023.27865561 1128.64534737 -1023.27288324 1114.61650816 C-1023.26785599 1102.33853314 -1023.26653692 1090.0605648 -1023.26892853 1077.78258896 C-1023.2690813 1076.96877662 -1023.26923407 1076.15496429 -1023.26939147 1075.31649097 C-1023.27001413 1072.01310121 -1023.27065093 1068.70971144 -1023.271311 1065.40632168 C-1023.27743209 1034.40339951 -1023.27187738 1003.40048895 -1023.2611172 972.39756857 C-1023.25162744 944.84555504 -1023.25247339 917.29356 -1023.26203918 889.74154663 C-1023.27274616 858.79905185 -1023.27699623 827.85656734 -1023.27081466 796.91407096 C-1023.27017321 793.61601186 -1023.26954753 790.31795275 -1023.26892853 787.01989365 C-1023.26877037 786.20780563 -1023.26861222 785.39571761 -1023.26844927 784.55902086 C-1023.2661732 772.28931518 -1023.26883701 760.01961691 -1023.27388763 747.74991226 C-1023.2796017 733.79877759 -1023.27818607 719.84766399 -1023.26732615 705.89653195 C-1023.2614471 698.0861667 -1023.26107954 690.27584705 -1023.2686185 682.46548297 C-1023.27362259 676.63918958 -1023.26820746 670.81293662 -1023.25866935 664.98664783 C-1023.25642862 662.62531627 -1023.2575866 660.26397864 -1023.26242092 657.90265097 C-1023.26847471 654.70094859 -1023.26229233 651.49949684 -1023.25297928 648.29780769 C-1023.25766161 647.37427091 -1023.26234394 646.45073412 -1023.26716816 645.49921137 C-1023.2370958 640.35025452 -1022.63938544 636.15122729 -1021.001297 631.26742554 C-1020.66676775 629.64681718 -1020.35184215 628.02193811 -1020.063797 626.39242554 C-1019.28315246 622.342832 -1018.15877646 618.58120563 -1016.7903595 614.69711304 C-1015.54941552 610.87598851 -1014.66279815 606.97417624 -1013.74739075 603.06430054 C-1013.001297 600.26742554 -1013.001297 600.26742554 -1012.00520325 597.78305054 C-1010.8858298 594.97808361 -1010.19107062 592.20646096 -1009.501297 589.26742554 C-1008.59964987 585.42562472 -1007.46432377 581.92499247 -1006.001297 578.26742554 C-1005.47143112 576.27512984 -1004.97233211 574.2744447 -1004.501297 572.26742554 C-1003.59964987 568.42562472 -1002.46432377 564.92499247 -1001.001297 561.26742554 C-1000.47143112 559.27512984 -999.97233211 557.2744447 -999.501297 555.26742554 C-998.59964987 551.42562472 -997.46432377 547.92499247 -996.001297 544.26742554 C-995.47143112 542.27512984 -994.97233211 540.2744447 -994.501297 538.26742554 C-993.59964987 534.42562472 -992.46432377 530.92499247 -991.001297 527.26742554 C-990.47143112 525.27512984 -989.97233211 523.2744447 -989.501297 521.26742554 C-988.59982596 517.42637502 -987.46819665 513.92312429 -986.001297 510.26742554 C-985.26664755 507.48625263 -984.62322779 504.69159483 -983.9778595 501.88851929 C-983.13264459 498.75446242 -982.16528033 495.72980235 -981.12239075 492.65805054 C-978.99379029 486.3576861 -977.18884806 479.99415763 -975.438797 473.57992554 C-973.2748762 465.6679402 -970.98073372 457.85893586 -968.24324036 450.12606812 C-966.51751058 445.24652531 -965.22716925 440.29245995 -964.001297 435.26742554 C-962.59265498 429.49319043 -961.00873041 423.86191209 -959.001297 418.26742554 C-956.88636555 412.26589232 -955.19856593 406.26254031 -953.74739075 400.06430054 C-953.001297 397.26742554 -953.001297 397.26742554 -952.00520325 394.78305054 C-950.8858298 391.97808361 -950.19107062 389.20646096 -949.501297 386.26742554 C-948.59964987 382.42562472 -947.46432377 378.92499247 -946.001297 375.26742554 C-945.47143112 373.27512984 -944.97233211 371.2744447 -944.501297 369.26742554 C-943.59964987 365.42562472 -942.46432377 361.92499247 -941.001297 358.26742554 C-940.47143112 356.27512984 -939.97233211 354.2744447 -939.501297 352.26742554 C-938.59974079 348.42601215 -937.46827182 344.92340184 -936.001297 341.26742554 C-935.46994543 339.31736529 -934.97104863 337.35823398 -934.501297 335.39242554 C-933.42893392 330.98321694 -932.28691779 326.61875746 -931.001297 322.26742554 C-931.58395325 322.13207397 -932.1666095 321.99672241 -932.766922 321.85726929 C-943.13307158 319.13534007 -952.33981287 313.75478502 -960.001297 306.26742554 C-960.001297 305.60742554 -960.001297 304.94742554 -960.001297 304.26742554 C-960.661297 304.26742554 -961.321297 304.26742554 -962.001297 304.26742554 C-980.87149993 281.98142428 -984.50987777 255.52379928 -983.001297 227.26742554 C-982.53448298 222.11339724 -981.48639598 217.22573989 -980.001297 212.26742554 C-979.6609845 211.09695679 -979.320672 209.92648804 -978.970047 208.72055054 C-976.15698002 200.01524866 -972.09367808 192.83383791 -967.001297 185.26742554 C-966.48825012 184.48625366 -965.97520325 183.70508179 -965.4466095 182.90023804 C-964.36584643 181.30787115 -963.19493729 179.77702944 -962.001297 178.26742554 C-961.341297 178.26742554 -960.681297 178.26742554 -960.001297 178.26742554 C-960.001297 177.60742554 -960.001297 176.94742554 -960.001297 176.26742554 C-948.65433364 165.53637251 -936.18111061 159.75687776 -920.56489563 159.90907288 C-919.06195725 159.90545273 -919.06195725 159.90545273 -917.52865648 159.90175945 C-914.19710613 159.89718517 -910.86600756 159.9137812 -907.53450012 159.93026733 C-905.13548794 159.93107428 -902.73647495 159.93047821 -900.33746338 159.92858887 C-895.18381271 159.92703103 -890.0302794 159.9343882 -884.87664795 159.94843102 C-877.41462919 159.96857952 -869.95273565 159.96640029 -862.49070054 159.95775995 C-850.36743857 159.94376684 -838.24419495 159.93866627 -826.1209259 159.94345093 C-825.3965034 159.94373068 -824.6720809 159.94401043 -823.92570621 159.94429866 C-813.64275189 159.94868859 -803.3598282 159.96200781 -793.07688779 159.97890941 C-792.35246529 159.98009874 -791.62804279 159.98128806 -790.88166809 159.98251343 C-790.15813544 159.98370702 -789.43460279 159.98490062 -788.68914491 159.98613038 C-776.60889939 160.00545754 -764.5287918 160.00164061 -752.44855261 159.97897846 C-745.6742085 159.96711123 -738.90025123 159.96687555 -732.12594604 159.99530602 C-725.75636466 160.02134462 -719.38738352 160.01991683 -713.01779366 159.99759293 C-710.68376806 159.99441997 -708.34970211 160.00147893 -706.01574516 160.01965904 C-702.82232715 160.04305763 -699.63107551 160.02933675 -696.43769836 160.00672913 C-695.06169928 160.03017782 -695.06169928 160.03017782 -693.65790224 160.05410022 C-686.40905838 159.94058647 -681.90567535 157.2792067 -676.001297 153.26742554 C-674.12073159 152.29966316 -672.22726523 151.35588592 -670.313797 150.45492554 C-665.58538933 148.14218325 -661.10697063 145.57897128 -656.626297 142.82992554 C-650.60650392 139.14176964 -644.47447713 135.90965677 -638.1341095 132.81039429 C-632.88145006 130.22336127 -627.82846935 127.32537817 -622.76301575 124.39242554 C-616.24365434 120.62604467 -609.69767978 117.07507175 -602.9309845 113.76351929 C-598.85102828 111.68002165 -594.94649704 109.32886943 -591.0091095 106.99008179 C-587.04744794 104.72113017 -582.96729455 102.73908927 -578.8684845 100.73226929 C-575.31036304 98.91442795 -571.94534648 96.84826361 -568.54426575 94.75570679 C-565.85536748 93.18201978 -563.11714363 91.81355681 -560.313797 90.45492554 C-555.58538933 88.14218325 -551.10697063 85.57897128 -546.626297 82.82992554 C-540.60650392 79.14176964 -534.47447713 75.90965677 -528.1341095 72.81039429 C-522.88145006 70.22336127 -517.82846935 67.32537817 -512.76301575 64.39242554 C-506.13492222 60.56312548 -499.48240721 56.92516998 -492.595047 53.57211304 C-490.49482507 52.5156761 -488.54646355 51.39617056 -486.563797 50.14242554 C-482.2875293 47.59372733 -477.45043874 46.4584672 -472.6966095 45.09945679 C-470.10851732 44.53033843 -470.10851732 44.53033843 -469.001297 43.26742554 C-457.5732486 40.40192154 -446.48087269 39.84177451 -434.75276184 39.90666199 C-432.9652874 39.90535063 -431.17781354 39.90271816 -429.39034271 39.89889449 C-424.52374005 39.8922424 -419.65733854 39.90410871 -414.79076147 39.91922867 C-409.52582696 39.93226167 -404.26090254 39.92779447 -398.99595642 39.92552185 C-389.889067 39.92395368 -380.78224238 39.93331499 -371.67536926 39.95023537 C-358.50859295 39.97468295 -345.34184776 39.98243652 -332.17505121 39.98619934 C-310.80949822 39.99275481 -289.44397972 40.01269138 -268.07844543 40.04110718 C-247.33170239 40.0686712 -226.58496873 40.0898933 -205.83821106 40.10263062 C-203.91790428 40.10381287 -203.91790428 40.10381287 -201.95880342 40.10501901 C-195.53598299 40.1089343 -189.11316249 40.11272539 -182.69034195 40.11645472 C-129.46063647 40.14752245 -76.23096842 40.20033355 -23.001297 40.26742554 C-23.02224426 39.58228882 -23.04319153 38.8971521 -23.06477356 38.19125366 C-23.14855099 35.05013031 -23.20015113 31.9092429 -23.251297 28.76742554 C-23.28481262 27.68976929 -23.31832825 26.61211304 -23.3528595 25.50180054 C-23.44807051 17.69449774 -22.50248985 12.32473628 -17.25520325 6.24398804 C-16.69703918 5.79797241 -16.13887512 5.35195679 -15.563797 4.89242554 C-15.00821106 4.43094116 -14.45262512 3.96945679 -13.88020325 3.49398804 C-9.32064214 0.51747621 -5.39727017 0.01460471 0 0 Z M18.998703 42.26742554 C18.998703 114.20742554 18.998703 186.14742554 18.998703 260.26742554 C57.938703 260.26742554 96.878703 260.26742554 136.998703 260.26742554 C136.998703 188.32742554 136.998703 116.38742554 136.998703 42.26742554 C98.058703 42.26742554 59.118703 42.26742554 18.998703 42.26742554 Z M-480.77229309 95.24349976 C-486.3811471 98.53101946 -492.15738108 101.42103546 -498.001297 104.26742554 C-500.00223114 105.26555507 -502.00247416 106.26507467 -504.001297 107.26742554 C-504.001297 107.92742554 -504.001297 108.58742554 -504.001297 109.26742554 C-504.51176575 109.35894897 -505.0222345 109.45047241 -505.548172 109.54476929 C-508.98643543 110.55763352 -512.07464164 112.19962985 -515.251297 113.82992554 C-516.22582825 114.32395874 -516.22582825 114.32395874 -517.220047 114.82797241 C-518.81563994 115.63750119 -520.40872183 116.45197595 -522.001297 117.26742554 C-522.001297 117.92742554 -522.001297 118.58742554 -522.001297 119.26742554 C-522.69094543 119.35637085 -523.38059387 119.44531616 -524.09114075 119.53695679 C-527.70079751 120.44300486 -530.36952071 122.04708134 -533.563797 123.95492554 C-539.90890108 127.68788335 -546.3816665 131.04320896 -553.001297 134.26742554 C-555.00223114 135.26555507 -557.00247416 136.26507467 -559.001297 137.26742554 C-559.001297 137.92742554 -559.001297 138.58742554 -559.001297 139.26742554 C-559.51176575 139.35894897 -560.0222345 139.45047241 -560.548172 139.54476929 C-563.98643543 140.55763352 -567.07464164 142.19962985 -570.251297 143.82992554 C-570.9009845 144.15928101 -571.550672 144.48863647 -572.220047 144.82797241 C-573.81563994 145.63750119 -575.40872183 146.45197595 -577.001297 147.26742554 C-577.001297 147.92742554 -577.001297 148.58742554 -577.001297 149.26742554 C-577.67934387 149.3512146 -578.35739075 149.43500366 -579.0559845 149.52133179 C-582.7932053 150.4680283 -585.84356919 152.25256637 -589.126297 154.20492554 C-589.74633606 154.56521851 -590.36637512 154.92551147 -591.00520325 155.29672241 C-593.72450165 156.8844418 -596.38068938 158.52035379 -599.001297 160.26742554 C-598.04414543 160.26775159 -598.04414543 160.26775159 -597.06765747 160.26808423 C-559.24791001 160.28160032 -521.42827247 160.32108257 -483.60859174 160.39428116 C-479.06745608 160.4030479 -474.52632004 160.41159771 -469.98518372 160.42001343 C-469.08112592 160.42169249 -468.17706813 160.42337155 -467.24561465 160.4251015 C-452.60756423 160.45177072 -437.96955296 160.46086652 -423.33148074 160.46346696 C-408.3112625 160.4665265 -393.29115748 160.48847325 -378.27099037 160.52795011 C-369.00283039 160.55171401 -359.73489641 160.56074883 -350.46671015 160.55093864 C-344.11100714 160.54562257 -337.75550663 160.55865382 -331.39986128 160.58608844 C-327.73299106 160.6013757 -324.06657406 160.60859644 -320.39969063 160.59402275 C-316.4216559 160.57842416 -312.44437235 160.60147307 -308.46638489 160.62818909 C-307.31073029 160.61751583 -306.15507568 160.60684257 -304.96440125 160.59584588 C-298.03111945 160.68281069 -293.34115926 161.69613308 -288.001297 166.26742554 C-282.66669536 172.02317994 -281.50286487 176.47521209 -281.60676575 184.22055054 C-282.20418841 188.83430968 -284.27683801 191.63481355 -287.001297 195.26742554 C-287.34289856 195.97769897 -287.68450012 196.68797241 -288.03645325 197.41976929 C-289.27541734 199.79236044 -290.64444468 200.12701313 -293.001297 201.26742554 C-293.331297 202.25742554 -293.661297 203.24742554 -294.001297 204.26742554 C-295.33463033 204.9340922 -296.66796366 205.60075887 -298.001297 206.26742554 C-298.331297 207.25742554 -298.661297 208.24742554 -299.001297 209.26742554 C-300.33463033 209.9340922 -301.66796366 210.60075887 -303.001297 211.26742554 C-303.331297 212.25742554 -303.661297 213.24742554 -304.001297 214.26742554 C-305.33463033 214.9340922 -306.66796366 215.60075887 -308.001297 216.26742554 C-308.331297 217.25742554 -308.661297 218.24742554 -309.001297 219.26742554 C-310.33463033 219.9340922 -311.66796366 220.60075887 -313.001297 221.26742554 C-313.331297 222.25742554 -313.661297 223.24742554 -314.001297 224.26742554 C-315.33463033 224.9340922 -316.66796366 225.60075887 -318.001297 226.26742554 C-318.331297 227.25742554 -318.661297 228.24742554 -319.001297 229.26742554 C-320.33463033 229.9340922 -321.66796366 230.60075887 -323.001297 231.26742554 C-323.331297 232.25742554 -323.661297 233.24742554 -324.001297 234.26742554 C-325.33463033 234.9340922 -326.66796366 235.60075887 -328.001297 236.26742554 C-328.331297 237.25742554 -328.661297 238.24742554 -329.001297 239.26742554 C-330.33463033 239.9340922 -331.66796366 240.60075887 -333.001297 241.26742554 C-333.331297 242.25742554 -333.661297 243.24742554 -334.001297 244.26742554 C-335.33463033 244.9340922 -336.66796366 245.60075887 -338.001297 246.26742554 C-338.331297 247.25742554 -338.661297 248.24742554 -339.001297 249.26742554 C-340.33463033 249.9340922 -341.66796366 250.60075887 -343.001297 251.26742554 C-343.331297 252.25742554 -343.661297 253.24742554 -344.001297 254.26742554 C-345.33463033 254.9340922 -346.66796366 255.60075887 -348.001297 256.26742554 C-348.331297 257.25742554 -348.661297 258.24742554 -349.001297 259.26742554 C-350.33463033 259.9340922 -351.66796366 260.60075887 -353.001297 261.26742554 C-353.331297 262.25742554 -353.661297 263.24742554 -354.001297 264.26742554 C-355.33463033 264.9340922 -356.66796366 265.60075887 -358.001297 266.26742554 C-358.331297 267.25742554 -358.661297 268.24742554 -359.001297 269.26742554 C-360.33463033 269.9340922 -361.66796366 270.60075887 -363.001297 271.26742554 C-363.331297 272.25742554 -363.661297 273.24742554 -364.001297 274.26742554 C-365.33463033 274.9340922 -366.66796366 275.60075887 -368.001297 276.26742554 C-368.331297 277.25742554 -368.661297 278.24742554 -369.001297 279.26742554 C-370.33463033 279.9340922 -371.66796366 280.60075887 -373.001297 281.26742554 C-373.331297 282.25742554 -373.661297 283.24742554 -374.001297 284.26742554 C-375.33463033 284.9340922 -376.66796366 285.60075887 -378.001297 286.26742554 C-378.331297 287.25742554 -378.661297 288.24742554 -379.001297 289.26742554 C-380.33463033 289.9340922 -381.66796366 290.60075887 -383.001297 291.26742554 C-383.331297 292.25742554 -383.661297 293.24742554 -384.001297 294.26742554 C-385.33463033 294.9340922 -386.66796366 295.60075887 -388.001297 296.26742554 C-388.331297 297.25742554 -388.661297 298.24742554 -389.001297 299.26742554 C-390.33463033 299.9340922 -391.66796366 300.60075887 -393.001297 301.26742554 C-393.331297 302.25742554 -393.661297 303.24742554 -394.001297 304.26742554 C-395.33463033 304.9340922 -396.66796366 305.60075887 -398.001297 306.26742554 C-398.331297 307.25742554 -398.661297 308.24742554 -399.001297 309.26742554 C-400.33463033 309.9340922 -401.66796366 310.60075887 -403.001297 311.26742554 C-403.331297 312.25742554 -403.661297 313.24742554 -404.001297 314.26742554 C-405.33463033 314.9340922 -406.66796366 315.60075887 -408.001297 316.26742554 C-408.331297 317.25742554 -408.661297 318.24742554 -409.001297 319.26742554 C-410.33463033 319.9340922 -411.66796366 320.60075887 -413.001297 321.26742554 C-413.331297 322.25742554 -413.661297 323.24742554 -414.001297 324.26742554 C-415.33463033 324.9340922 -416.66796366 325.60075887 -418.001297 326.26742554 C-418.331297 327.25742554 -418.661297 328.24742554 -419.001297 329.26742554 C-420.33463033 329.9340922 -421.66796366 330.60075887 -423.001297 331.26742554 C-423.331297 332.25742554 -423.661297 333.24742554 -424.001297 334.26742554 C-424.661297 334.26742554 -425.321297 334.26742554 -426.001297 334.26742554 C-427.41019439 336.10779776 -428.72969997 338.01714257 -430.001297 339.95492554 C-430.702547 341.01066772 -431.403797 342.06640991 -432.126297 343.15414429 C-438.26144647 353.34104872 -439.05049528 366.79881291 -436.84114075 378.32211304 C-435.50836417 382.99612951 -433.41265814 387.0707297 -431.001297 391.26742554 C-430.650672 391.98285522 -430.300047 392.69828491 -429.938797 393.43539429 C-428.88750617 395.48979179 -427.77073805 396.79289132 -426.001297 398.26742554 C-425.341297 398.26742554 -424.681297 398.26742554 -424.001297 398.26742554 C-423.671297 399.25742554 -423.341297 400.24742554 -423.001297 401.26742554 C-422.341297 401.26742554 -421.681297 401.26742554 -421.001297 401.26742554 C-421.001297 401.92742554 -421.001297 402.58742554 -421.001297 403.26742554 C-417.78015543 405.58334576 -417.78015543 405.58334576 -414.001297 406.26742554 C-414.001297 406.92742554 -414.001297 407.58742554 -414.001297 408.26742554 C-401.21841526 414.02177744 -388.48457132 415.64020568 -374.876297 411.51742554 C-366.81079141 408.26855678 -360.16755795 402.86383834 -353.47492981 397.40316772 C-352.001297 396.26742554 -352.001297 396.26742554 -350.001297 395.26742554 C-350.001297 394.60742554 -350.001297 393.94742554 -350.001297 393.26742554 C-349.42097717 392.99648071 -348.84065735 392.72553589 -348.24275208 392.44638062 C-346.00125472 391.2674033 -344.13609452 389.95615888 -342.13801575 388.40414429 C-341.41549622 387.84662476 -340.69297668 387.28910522 -339.94856262 386.71469116 C-339.20283997 386.13396851 -338.45711731 385.55324585 -337.688797 384.95492554 C-336.21438643 383.81190137 -334.73913523 382.66996068 -333.26301575 381.52914429 C-332.55193665 380.97790894 -331.84085754 380.42667358 -331.10823059 379.85873413 C-329.09416926 378.33756938 -327.03942296 376.90183738 -324.95832825 375.47445679 C-323.49459778 374.38197632 -323.49459778 374.38197632 -322.001297 373.26742554 C-322.001297 372.60742554 -322.001297 371.94742554 -322.001297 371.26742554 C-320.681297 370.93742554 -319.361297 370.60742554 -318.001297 370.26742554 C-318.001297 369.60742554 -318.001297 368.94742554 -318.001297 368.26742554 C-317.43926575 367.99930054 -316.8772345 367.73117554 -316.298172 367.45492554 C-313.84579054 366.18702764 -311.56202017 364.77770212 -309.251297 363.26742554 C-308.45207825 362.75180054 -307.6528595 362.23617554 -306.829422 361.70492554 C-306.22614075 361.23055054 -305.6228595 360.75617554 -305.001297 360.26742554 C-305.001297 359.60742554 -305.001297 358.94742554 -305.001297 358.26742554 C-304.42097717 357.99648071 -303.84065735 357.72553589 -303.24275208 357.44638062 C-301.00125472 356.2674033 -299.13609452 354.95615888 -297.13801575 353.40414429 C-296.41549622 352.84662476 -295.69297668 352.28910522 -294.94856262 351.71469116 C-294.20283997 351.13396851 -293.45711731 350.55324585 -292.688797 349.95492554 C-291.21438643 348.81190137 -289.73913523 347.66996068 -288.26301575 346.52914429 C-287.55193665 345.97790894 -286.84085754 345.42667358 -286.10823059 344.85873413 C-284.09416926 343.33756938 -282.03942296 341.90183738 -279.95832825 340.47445679 C-278.49459778 339.38197632 -278.49459778 339.38197632 -277.001297 338.26742554 C-277.001297 337.60742554 -277.001297 336.94742554 -277.001297 336.26742554 C-275.681297 335.93742554 -274.361297 335.60742554 -273.001297 335.26742554 C-273.001297 334.60742554 -273.001297 333.94742554 -273.001297 333.26742554 C-272.43926575 332.99930054 -271.8772345 332.73117554 -271.298172 332.45492554 C-268.84579054 331.18702764 -266.56202017 329.77770212 -264.251297 328.26742554 C-263.45207825 327.75180054 -262.6528595 327.23617554 -261.829422 326.70492554 C-261.22614075 326.23055054 -260.6228595 325.75617554 -260.001297 325.26742554 C-260.001297 324.60742554 -260.001297 323.94742554 -260.001297 323.26742554 C-259.42242737 322.99720581 -258.84355774 322.72698608 -258.24714661 322.44857788 C-255.98445505 321.25856791 -254.09016404 319.92913678 -252.06770325 318.36898804 C-251.33616028 317.80695679 -250.60461731 317.24492554 -249.85090637 316.66586304 C-249.09616028 316.08062866 -248.34141418 315.49539429 -247.563797 314.89242554 C-246.81291809 314.31492554 -246.06203918 313.73742554 -245.28840637 313.14242554 C-244.55557434 312.57781616 -243.82274231 312.01320679 -243.06770325 311.43148804 C-242.35630188 310.88395874 -241.64490051 310.33642944 -240.91194153 309.77230835 C-239.39203947 308.57518641 -237.91981664 307.31758916 -236.46614075 306.04086304 C-228.76760981 300.50182493 -220.73330765 300.82669593 -211.60676575 300.82601929 C-210.20964188 300.81422043 -208.8125305 300.80085017 -207.41543579 300.78599548 C-203.75202891 300.74998048 -200.08873255 300.72966716 -196.42518616 300.71444702 C-190.57432991 300.68953685 -184.72371813 300.64935759 -178.87308693 300.59254646 C-176.84883102 300.5764531 -174.82448811 300.57282107 -172.8001709 300.5695343 C-155.3806145 300.42810628 -140.8111643 296.35939342 -127.001297 285.26742554 C-127.001297 284.60742554 -127.001297 283.94742554 -127.001297 283.26742554 C-126.403172 282.99930054 -125.805047 282.73117554 -125.188797 282.45492554 C-123.00281846 281.26825147 -121.58797106 280.17143441 -120.001297 278.26742554 C-120.001297 277.60742554 -120.001297 276.94742554 -120.001297 276.26742554 C-119.341297 276.26742554 -118.681297 276.26742554 -118.001297 276.26742554 C-107.68398596 263.42203166 -103.36928759 249.84285076 -102.626297 233.64242554 C-102.32366579 228.13341671 -101.54648366 223.96010804 -98.938797 219.09945679 C-97.95364821 217.17431187 -97.45019067 215.37629059 -97.001297 213.26742554 C-96.341297 213.26742554 -95.681297 213.26742554 -95.001297 213.26742554 C-92.33463033 210.9340922 -92.33463033 210.9340922 -90.001297 208.26742554 C-90.001297 207.60742554 -90.001297 206.94742554 -90.001297 206.26742554 C-65.72167014 196.40382713 -60.94749848 200.97013297 -23.001297 200.26742554 C-23.001297 161.32742554 -23.001297 122.38742554 -23.001297 82.26742554 C-76.93952707 82.2012832 -130.87771889 82.14589297 -184.81597792 82.11422955 C-191.1845544 82.11047745 -197.5531308 82.10659448 -203.92170715 82.10263062 C-205.18957071 82.10184368 -206.45743426 82.10105675 -207.76371792 82.10024597 C-228.29007929 82.08719372 -248.81641544 82.06354085 -269.34276184 82.03596715 C-290.40624936 82.00790798 -311.46972367 81.99124819 -332.53322911 81.98516005 C-345.52947107 81.98104469 -358.52564175 81.96804867 -371.52186176 81.94367614 C-380.435063 81.92781266 -389.34822741 81.92302658 -398.26144174 81.9269214 C-403.40310379 81.92884198 -408.54464132 81.92590727 -413.6862812 81.90980911 C-418.39815189 81.89516456 -423.1098148 81.8945027 -427.82169524 81.90472885 C-429.5217671 81.90599195 -431.22185215 81.90222515 -432.92189822 81.89277599 C-450.88558013 81.79877699 -465.26971946 86.1522469 -480.77229309 95.24349976 Z M-929.001297 205.26742554 C-929.001297 205.92742554 -929.001297 206.58742554 -929.001297 207.26742554 C-929.661297 207.26742554 -930.321297 207.26742554 -931.001297 207.26742554 C-941.56404161 220.68873469 -942.09062112 236.9495597 -940.7591095 253.22836304 C-939.48898647 261.23791436 -935.45919417 268.58057978 -931.001297 275.26742554 C-930.341297 275.26742554 -929.681297 275.26742554 -929.001297 275.26742554 C-928.671297 276.25742554 -928.341297 277.24742554 -928.001297 278.26742554 C-924.38660072 281.00167067 -920.11943017 280.54258021 -915.7941246 280.51352119 C-914.95545263 280.51582888 -914.11678065 280.51813657 -913.25269437 280.52051419 C-910.4237604 280.52583589 -907.59505105 280.51681209 -904.76612854 280.50793457 C-902.72502439 280.50880619 -900.68392047 280.51055637 -898.64281774 280.5131129 C-893.01944922 280.51759894 -887.39615644 280.50956551 -881.77279758 280.49955678 C-875.71418823 280.49094264 -869.65558336 280.49384099 -863.5969696 280.49536133 C-853.09516685 280.49641147 -842.59338604 280.49019099 -832.09159088 280.47888565 C-821.07568494 280.46705723 -810.05978889 280.4593549 -799.04387665 280.45718002 C-798.3592963 280.45704254 -797.67471595 280.45690506 -796.96939074 280.45676342 C-793.49284439 280.45608677 -790.01629804 280.45548399 -786.53975168 280.45490967 C-761.90648401 280.45070729 -737.27322926 280.43722825 -712.63996887 280.41830444 C-688.70702686 280.39993984 -664.77408839 280.38577052 -640.84114075 280.37728882 C-640.10360323 280.37702577 -639.36606572 280.37676271 -638.60617858 280.37649169 C-631.19961752 280.37385468 -623.79305644 280.37130305 -616.38649533 280.36881397 C-601.29807372 280.36374136 -586.20965235 280.35809885 -571.12123108 280.35211182 C-570.42746871 280.35183724 -569.73370634 280.35156266 -569.01892087 280.35127976 C-522.67970743 280.33287411 -476.34050156 280.30114165 -430.001297 280.26742554 C-430.001297 279.60742554 -430.001297 278.94742554 -430.001297 278.26742554 C-429.361922 277.99930054 -428.722547 277.73117554 -428.063797 277.45492554 C-425.66998013 276.38074801 -425.66998013 276.38074801 -425.001297 273.26742554 C-423.66796366 272.60075887 -422.33463033 271.9340922 -421.001297 271.26742554 C-420.671297 270.27742554 -420.341297 269.28742554 -420.001297 268.26742554 C-418.66796366 267.60075887 -417.33463033 266.9340922 -416.001297 266.26742554 C-415.671297 265.27742554 -415.341297 264.28742554 -415.001297 263.26742554 C-413.66796366 262.60075887 -412.33463033 261.9340922 -411.001297 261.26742554 C-410.671297 260.27742554 -410.341297 259.28742554 -410.001297 258.26742554 C-408.66796366 257.60075887 -407.33463033 256.9340922 -406.001297 256.26742554 C-405.671297 255.27742554 -405.341297 254.28742554 -405.001297 253.26742554 C-403.66796366 252.60075887 -402.33463033 251.9340922 -401.001297 251.26742554 C-400.671297 250.27742554 -400.341297 249.28742554 -400.001297 248.26742554 C-398.66796366 247.60075887 -397.33463033 246.9340922 -396.001297 246.26742554 C-395.671297 245.27742554 -395.341297 244.28742554 -395.001297 243.26742554 C-393.66796366 242.60075887 -392.33463033 241.9340922 -391.001297 241.26742554 C-390.671297 240.27742554 -390.341297 239.28742554 -390.001297 238.26742554 C-388.66796366 237.60075887 -387.33463033 236.9340922 -386.001297 236.26742554 C-385.671297 235.27742554 -385.341297 234.28742554 -385.001297 233.26742554 C-383.66796366 232.60075887 -382.33463033 231.9340922 -381.001297 231.26742554 C-380.671297 230.27742554 -380.341297 229.28742554 -380.001297 228.26742554 C-378.66796366 227.60075887 -377.33463033 226.9340922 -376.001297 226.26742554 C-375.671297 225.27742554 -375.341297 224.28742554 -375.001297 223.26742554 C-373.66796366 222.60075887 -372.33463033 221.9340922 -371.001297 221.26742554 C-370.671297 220.27742554 -370.341297 219.28742554 -370.001297 218.26742554 C-368.66796366 217.60075887 -367.33463033 216.9340922 -366.001297 216.26742554 C-365.671297 215.27742554 -365.341297 214.28742554 -365.001297 213.26742554 C-363.66796366 212.60075887 -362.33463033 211.9340922 -361.001297 211.26742554 C-360.671297 210.27742554 -360.341297 209.28742554 -360.001297 208.26742554 C-358.66796366 207.60075887 -357.33463033 206.9340922 -356.001297 206.26742554 C-355.671297 205.27742554 -355.341297 204.28742554 -355.001297 203.26742554 C-354.341297 202.93742554 -353.681297 202.60742554 -353.001297 202.26742554 C-407.36809638 202.21608548 -461.73489807 202.16832169 -516.10171509 202.14039612 C-517.30811986 202.13977486 -517.30811986 202.13977486 -518.53889646 202.13914105 C-536.0166129 202.13016294 -553.4943296 202.12185231 -570.97204668 202.11422955 C-579.54275062 202.11048744 -588.11345449 202.10659779 -596.68415833 202.10263062 C-597.53705971 202.10223834 -598.38996109 202.10184606 -599.26870797 202.1014419 C-626.92830208 202.08865116 -654.58787784 202.06611225 -682.24746083 202.03853387 C-710.66431779 202.01025182 -739.08116458 201.99177286 -767.49803537 201.98568057 C-771.50901857 201.98481607 -775.52000173 201.98383915 -779.53098488 201.98279381 C-780.32042669 201.98259154 -781.1098685 201.98238927 -781.92323279 201.98218087 C-794.6460966 201.97863167 -807.36892906 201.9647066 -820.09178008 201.94692944 C-832.87344016 201.92929051 -845.65506906 201.92251587 -858.4367409 201.9269214 C-866.03646071 201.92920821 -873.63606666 201.92307481 -881.23576597 201.90503291 C-886.90190452 201.89249685 -892.56794772 201.89552082 -898.2340887 201.90472885 C-900.53295425 201.90600273 -902.83182923 201.90214266 -905.13067605 201.89277599 C-908.24348934 201.8808249 -911.35573559 201.88717179 -914.46853924 201.89828205 C-915.37148542 201.89040101 -916.2744316 201.88251997 -917.20473978 201.87440011 C-921.91165079 201.91264616 -925.2323401 202.0967548 -929.001297 205.26742554 Z M-886.001297 322.26742554 C-888.08544844 327.13044556 -889.61362621 331.12526464 -890.876297 336.14242554 C-894.00758467 348.30680747 -897.46883487 360.41166105 -901.70832825 372.24008179 C-903.43572137 377.18208885 -904.76110775 382.1837036 -906.001297 387.26742554 C-907.40993901 393.04166065 -908.99386359 398.67293899 -911.001297 404.26742554 C-913.11622845 410.26895876 -914.80402806 416.27231076 -916.25520325 422.47055054 C-917.001297 425.26742554 -917.001297 425.26742554 -917.99739075 427.75180054 C-919.1167642 430.55676747 -919.81152338 433.32839012 -920.501297 436.26742554 C-921.40294413 440.10922636 -922.53827022 443.6098586 -924.001297 447.26742554 C-924.53116287 449.25972124 -925.03026189 451.26040637 -925.501297 453.26742554 C-926.40294413 457.10922636 -927.53827022 460.6098586 -929.001297 464.26742554 C-929.53116287 466.25972124 -930.03026189 468.26040637 -930.501297 470.26742554 C-931.40294413 474.10922636 -932.53827022 477.6098586 -934.001297 481.26742554 C-934.53116287 483.25972124 -935.03026189 485.26040637 -935.501297 487.26742554 C-936.40294413 491.10922636 -937.53827022 494.6098586 -939.001297 498.26742554 C-939.53116287 500.25972124 -940.03026189 502.26040637 -940.501297 504.26742554 C-941.40294413 508.10922636 -942.53827022 511.6098586 -944.001297 515.26742554 C-944.53116287 517.25972124 -945.03026189 519.26040637 -945.501297 521.26742554 C-946.40276804 525.10847606 -947.53439734 528.61172679 -949.001297 532.26742554 C-949.73594644 535.04859844 -950.3793662 537.84325624 -951.0247345 540.64633179 C-951.8699494 543.78038866 -952.83731366 546.80504872 -953.88020325 549.87680054 C-956.00880371 556.17716497 -957.81374594 562.54069344 -959.563797 568.95492554 C-961.72771779 576.86691088 -964.02186027 584.67591522 -966.75935364 592.40878296 C-968.48508342 597.28832576 -969.77542475 602.24239112 -971.001297 607.26742554 C-972.40986164 613.0413435 -973.99118283 618.67406439 -976.001297 624.26742554 C-979.43868161 633.89210244 -981.30944258 642.95298641 -981.24739265 653.19677925 C-981.24970014 654.14908595 -981.25200763 655.10139265 -981.25438505 656.08255713 C-981.25966088 659.26039126 -981.25072307 662.43802115 -981.24180603 665.61584473 C-981.24268139 667.9164281 -981.24443616 670.21701127 -981.24699402 672.51759338 C-981.25147719 678.84307567 -981.24345678 685.16849018 -981.23344246 691.49396387 C-981.22460941 697.70535976 -981.22728272 703.91675702 -981.22865786 710.12815732 C-981.23113933 722.756366 -981.22456631 735.38455385 -981.21244812 748.01275635 C-981.19609163 765.08780665 -981.19224148 782.16282134 -981.19050598 799.23788452 C-981.18000433 840.28940243 -981.15208212 881.34091438 -981.126297 922.39242554 C-981.085047 1014.09117554 -981.043797 1105.78992554 -981.001297 1200.26742554 C-763.861297 1200.26742554 -546.721297 1200.26742554 -323.001297 1200.26742554 C-322.75149436 1015.6276685 -322.75149436 1015.6276685 -322.52326965 830.98788452 C-322.46882629 795.34567261 -322.46882629 795.34567261 -322.44084167 778.68089294 C-322.42065966 766.22550987 -322.40708104 753.77013637 -322.39667339 741.3147419 C-322.38590443 728.62029094 -322.36772515 715.92586668 -322.34236821 703.23143638 C-322.32879981 696.33866762 -322.31831527 689.44593022 -322.31704259 682.5531472 C-322.31559036 676.32609391 -322.30506405 670.09912602 -322.28715324 663.87209892 C-322.28229179 661.61551262 -322.28082608 659.35891603 -322.28302073 657.10232556 C-322.28550954 654.03668987 -322.27580827 650.97132704 -322.26301003 647.90572262 C-322.26665966 647.02243096 -322.2703093 646.13913931 -322.27406953 645.22908124 C-322.23761741 640.17892012 -321.59548096 636.06168938 -320.001297 631.26742554 C-319.66676775 629.64681718 -319.35184215 628.02193811 -319.063797 626.39242554 C-318.28315246 622.342832 -317.15877646 618.58120563 -315.7903595 614.69711304 C-314.54941552 610.87598851 -313.66279815 606.97417624 -312.74739075 603.06430054 C-312.001297 600.26742554 -312.001297 600.26742554 -311.00520325 597.78305054 C-309.8858298 594.97808361 -309.19107062 592.20646096 -308.501297 589.26742554 C-307.59964987 585.42562472 -306.46432377 581.92499247 -305.001297 578.26742554 C-304.47143112 576.27512984 -303.97233211 574.2744447 -303.501297 572.26742554 C-302.59964987 568.42562472 -301.46432377 564.92499247 -300.001297 561.26742554 C-299.47143112 559.27512984 -298.97233211 557.2744447 -298.501297 555.26742554 C-297.59964987 551.42562472 -296.46432377 547.92499247 -295.001297 544.26742554 C-294.47143112 542.27512984 -293.97233211 540.2744447 -293.501297 538.26742554 C-292.59964987 534.42562472 -291.46432377 530.92499247 -290.001297 527.26742554 C-289.47143112 525.27512984 -288.97233211 523.2744447 -288.501297 521.26742554 C-287.59982596 517.42637502 -286.46819665 513.92312429 -285.001297 510.26742554 C-284.26664755 507.48625263 -283.62322779 504.69159483 -282.9778595 501.88851929 C-282.13264459 498.75446242 -281.16528033 495.72980235 -280.12239075 492.65805054 C-277.99379029 486.3576861 -276.18884806 479.99415763 -274.438797 473.57992554 C-272.2748762 465.6679402 -269.98073372 457.85893586 -267.24324036 450.12606812 C-265.51751058 445.24652531 -264.22716925 440.29245995 -263.001297 435.26742554 C-261.59265498 429.49319043 -260.00873041 423.86191209 -258.001297 418.26742554 C-255.88636555 412.26589232 -254.19856593 406.26254031 -252.74739075 400.06430054 C-252.001297 397.26742554 -252.001297 397.26742554 -251.00520325 394.78305054 C-249.8858298 391.97808361 -249.19107062 389.20646096 -248.501297 386.26742554 C-247.60119957 382.43222782 -246.51894196 378.90130851 -245.001297 375.26742554 C-243.03370575 369.79087003 -243.03370575 369.79087003 -244.001297 364.26742554 C-244.001297 364.92742554 -244.001297 365.58742554 -244.001297 366.26742554 C-244.54528137 366.51363647 -245.08926575 366.75984741 -245.6497345 367.01351929 C-248.5188032 368.54337153 -251.01640714 370.39185369 -253.626297 372.32992554 C-258.80685255 376.17020331 -258.80685255 376.17020331 -261.001297 377.26742554 C-261.001297 377.92742554 -261.001297 378.58742554 -261.001297 379.26742554 C-261.56332825 379.53555054 -262.1253595 379.80367554 -262.704422 380.07992554 C-265.15680346 381.34782344 -267.44057382 382.75714895 -269.751297 384.26742554 C-270.95012512 385.04086304 -270.95012512 385.04086304 -272.173172 385.82992554 C-272.77645325 386.30430054 -273.3797345 386.77867554 -274.001297 387.26742554 C-274.001297 387.92742554 -274.001297 388.58742554 -274.001297 389.26742554 C-274.81340637 389.63867554 -274.81340637 389.63867554 -275.641922 390.01742554 C-278.52958189 391.54731158 -281.09905718 393.35893551 -283.751297 395.26742554 C-284.73614075 395.96867554 -285.7209845 396.66992554 -286.735672 397.39242554 C-287.48332825 398.01117554 -288.2309845 398.62992554 -289.001297 399.26742554 C-289.001297 399.92742554 -289.001297 400.58742554 -289.001297 401.26742554 C-289.661297 401.47367554 -290.321297 401.67992554 -291.001297 401.89242554 C-295.07309886 403.75866806 -298.68926698 406.24304081 -302.001297 409.26742554 C-302.001297 409.92742554 -302.001297 410.58742554 -302.001297 411.26742554 C-303.321297 411.59742554 -304.641297 411.92742554 -306.001297 412.26742554 C-306.001297 412.92742554 -306.001297 413.58742554 -306.001297 414.26742554 C-308.001297 415.26742554 -310.001297 416.26742554 -312.001297 417.26742554 C-312.001297 417.92742554 -312.001297 418.58742554 -312.001297 419.26742554 C-312.72575012 419.5162146 -313.45020325 419.76500366 -314.1966095 420.02133179 C-317.27524923 421.38913969 -319.32687259 423.00892601 -321.876297 425.20492554 C-326.47360137 429.05689037 -331.17084632 432.71205029 -336.001297 436.26742554 C-336.64824524 436.74816528 -337.29519348 437.22890503 -337.96174622 437.72421265 C-340.62185417 439.6714285 -342.85362531 441.21820164 -346.001297 442.26742554 C-346.001297 442.92742554 -346.001297 443.58742554 -346.001297 444.26742554 C-346.537547 444.37055054 -347.073797 444.47367554 -347.626297 444.57992554 C-350.12315922 445.21736511 -350.12315922 445.21736511 -352.6966095 446.67758179 C-356.17602371 448.35148437 -359.5273322 449.38616271 -363.251297 450.39242554 C-367.73640311 451.540324 -367.73640311 451.540324 -372.001297 453.26742554 C-395.88705526 456.11683116 -417.08537859 453.54416025 -438.001297 441.26742554 C-438.661297 441.26742554 -439.321297 441.26742554 -440.001297 441.26742554 C-440.001297 440.60742554 -440.001297 439.94742554 -440.001297 439.26742554 C-440.991297 439.26742554 -441.981297 439.26742554 -443.001297 439.26742554 C-443.001297 438.60742554 -443.001297 437.94742554 -443.001297 437.26742554 C-444.321297 436.93742554 -445.641297 436.60742554 -447.001297 436.26742554 C-447.001297 435.60742554 -447.001297 434.94742554 -447.001297 434.26742554 C-448.55512847 432.73505002 -448.55512847 432.73505002 -450.563797 431.14242554 C-466.67331558 417.35857689 -475.83071891 398.03517153 -479.001297 377.26742554 C-479.28695589 373.49157095 -479.33504473 369.74051055 -479.313797 365.95492554 C-479.31033264 364.94744263 -479.30686829 363.93995972 -479.30329895 362.90194702 C-479.19260383 355.30434772 -478.38956833 348.52028642 -476.001297 341.26742554 C-475.77313293 340.55199585 -475.54496887 339.83656616 -475.30989075 339.09945679 C-473.29543351 333.33235349 -470.51864118 327.80558273 -468.001297 322.26742554 C-605.941297 322.26742554 -743.881297 322.26742554 -886.001297 322.26742554 Z M-204.001297 379.26742554 C-204.25524231 380.31801147 -204.50918762 381.36859741 -204.77082825 382.45101929 C-206.57344842 389.83305241 -208.4323744 397.10813307 -211.001297 404.26742554 C-213.11622845 410.26895876 -214.80402806 416.27231076 -216.25520325 422.47055054 C-217.001297 425.26742554 -217.001297 425.26742554 -217.99739075 427.75180054 C-219.1167642 430.55676747 -219.81152338 433.32839012 -220.501297 436.26742554 C-221.40294413 440.10922636 -222.53827022 443.6098586 -224.001297 447.26742554 C-224.53116287 449.25972124 -225.03026189 451.26040637 -225.501297 453.26742554 C-226.40294413 457.10922636 -227.53827022 460.6098586 -229.001297 464.26742554 C-229.53116287 466.25972124 -230.03026189 468.26040637 -230.501297 470.26742554 C-231.40294413 474.10922636 -232.53827022 477.6098586 -234.001297 481.26742554 C-234.53116287 483.25972124 -235.03026189 485.26040637 -235.501297 487.26742554 C-236.40294413 491.10922636 -237.53827022 494.6098586 -239.001297 498.26742554 C-239.53116287 500.25972124 -240.03026189 502.26040637 -240.501297 504.26742554 C-241.40294413 508.10922636 -242.53827022 511.6098586 -244.001297 515.26742554 C-244.53116287 517.25972124 -245.03026189 519.26040637 -245.501297 521.26742554 C-246.40276804 525.10847606 -247.53439734 528.61172679 -249.001297 532.26742554 C-249.73594644 535.04859844 -250.3793662 537.84325624 -251.0247345 540.64633179 C-251.8699494 543.78038866 -252.83731366 546.80504872 -253.88020325 549.87680054 C-256.00880371 556.17716497 -257.81374594 562.54069344 -259.563797 568.95492554 C-261.72771779 576.86691088 -264.02186027 584.67591522 -266.75935364 592.40878296 C-268.48508342 597.28832576 -269.77542475 602.24239112 -271.001297 607.26742554 C-272.40986164 613.0413435 -273.99118283 618.67406439 -276.001297 624.26742554 C-279.37469782 633.71294784 -281.3118935 642.67113869 -281.24739265 652.72825813 C-281.24970034 653.62956951 -281.25200803 654.53088088 -281.25438565 655.45950472 C-281.25965949 658.46538854 -281.25072337 661.47105605 -281.24180603 664.47692871 C-281.24267863 666.65932956 -281.24443062 668.84173021 -281.24698436 671.02412975 C-281.25145114 677.01019256 -281.24346335 682.99618366 -281.23342824 688.98223734 C-281.22478643 695.44156292 -281.22771442 701.9008845 -281.22923279 708.36021423 C-281.23062647 719.54781129 -281.22407931 730.73538648 -281.21275711 741.92297745 C-281.2009154 753.65402461 -281.19322367 765.38506247 -281.19105148 777.11611557 C-281.190914 777.84603293 -281.19077652 778.57595028 -281.19063488 779.32798635 C-281.1899582 783.03500042 -281.18935543 786.7420145 -281.18878113 790.4490286 C-281.18458242 816.69286255 -281.17111361 842.93668436 -281.1521759 869.18051147 C-281.13380161 894.67302384 -281.11963704 920.16553288 -281.11116028 945.65805054 C-281.11089723 946.44410274 -281.11063417 947.23015494 -281.11036315 948.04002691 C-281.10772607 955.93402245 -281.10517445 963.82801801 -281.10268543 971.7220136 C-281.09761326 987.80240784 -281.09197076 1003.88280187 -281.08598328 1019.9631958 C-281.0857087 1020.70251556 -281.08543412 1021.44183533 -281.08515122 1022.20355872 C-281.06675577 1071.55818615 -281.03502441 1120.91280646 -281.001297 1170.26742554 C-280.671297 1169.60742554 -280.341297 1168.94742554 -280.001297 1168.26742554 C-279.341297 1167.95805054 -278.681297 1167.64867554 -278.001297 1167.32992554 C-275.65521478 1166.37824093 -275.65521478 1166.37824093 -275.001297 1163.26742554 C-273.66796366 1162.60075887 -272.33463033 1161.9340922 -271.001297 1161.26742554 C-270.671297 1160.27742554 -270.341297 1159.28742554 -270.001297 1158.26742554 C-268.66796366 1157.60075887 -267.33463033 1156.9340922 -266.001297 1156.26742554 C-265.671297 1155.27742554 -265.341297 1154.28742554 -265.001297 1153.26742554 C-263.66796366 1152.60075887 -262.33463033 1151.9340922 -261.001297 1151.26742554 C-260.671297 1150.27742554 -260.341297 1149.28742554 -260.001297 1148.26742554 C-258.66796366 1147.60075887 -257.33463033 1146.9340922 -256.001297 1146.26742554 C-255.671297 1145.27742554 -255.341297 1144.28742554 -255.001297 1143.26742554 C-253.66796366 1142.60075887 -252.33463033 1141.9340922 -251.001297 1141.26742554 C-250.671297 1140.27742554 -250.341297 1139.28742554 -250.001297 1138.26742554 C-248.66796366 1137.60075887 -247.33463033 1136.9340922 -246.001297 1136.26742554 C-245.671297 1135.27742554 -245.341297 1134.28742554 -245.001297 1133.26742554 C-243.66796366 1132.60075887 -242.33463033 1131.9340922 -241.001297 1131.26742554 C-240.671297 1130.27742554 -240.341297 1129.28742554 -240.001297 1128.26742554 C-238.66796366 1127.60075887 -237.33463033 1126.9340922 -236.001297 1126.26742554 C-235.671297 1125.27742554 -235.341297 1124.28742554 -235.001297 1123.26742554 C-233.66796366 1122.60075887 -232.33463033 1121.9340922 -231.001297 1121.26742554 C-230.671297 1120.27742554 -230.341297 1119.28742554 -230.001297 1118.26742554 C-228.66796366 1117.60075887 -227.33463033 1116.9340922 -226.001297 1116.26742554 C-225.671297 1115.27742554 -225.341297 1114.28742554 -225.001297 1113.26742554 C-224.341297 1113.26742554 -223.681297 1113.26742554 -223.001297 1113.26742554 C-223.00040136 1111.88496407 -223.00040136 1111.88496407 -222.99948764 1110.47457409 C-222.96375998 1055.87044601 -222.90698711 1001.26637283 -222.82337604 946.66229606 C-222.81335839 940.10830949 -222.8035143 933.55432268 -222.79377747 927.00033569 C-222.79183609 925.69553552 -222.78989472 924.39073535 -222.78789452 923.04639578 C-222.7568596 901.9094946 -222.7398897 880.77260428 -222.72810277 859.63568461 C-222.71569895 837.95293701 -222.68821492 816.27024648 -222.64668393 794.5875349 C-222.62152657 781.20434959 -222.60818136 767.82125891 -222.60986742 754.43804961 C-222.60989714 745.26506763 -222.5953005 736.09218217 -222.56913272 726.91923779 C-222.55446142 721.62413964 -222.54630559 716.32923944 -222.55549431 711.03412437 C-222.56376398 706.1866789 -222.55367374 701.33963164 -222.52896038 696.49224532 C-222.52326335 694.73842216 -222.52431288 692.98456143 -222.53278455 691.23074949 C-222.61260456 673.15820735 -222.61260456 673.15820735 -216.58950591 666.77007103 C-211.28606596 661.98130689 -206.5318718 660.80180997 -199.56770325 660.94711304 C-194.46358615 661.58415657 -190.67345916 663.95681195 -186.688797 667.07992554 C-182.62707411 672.34512187 -181.55653058 677.42680618 -181.61653614 683.95355129 C-181.61138623 684.6994475 -181.60623633 685.44534371 -181.60093036 686.21384284 C-181.58733197 688.70920391 -181.59499078 691.20403722 -181.60256958 693.69941711 C-181.59712943 695.50800054 -181.59037758 697.31658042 -181.58242768 699.12515455 C-181.56438999 704.0918683 -181.56496097 709.05843261 -181.56855714 714.0251714 C-181.56918054 719.38231459 -181.5525652 724.73940744 -181.53804016 730.0965271 C-181.51523832 739.37707325 -181.50336631 748.65758183 -181.4989109 757.93815422 C-181.49245335 771.35630629 -181.46952288 784.77439039 -181.44256761 798.19251508 C-181.39928239 819.96234872 -181.36932553 841.73217951 -181.34773254 863.50204468 C-181.32672806 884.64984543 -181.29945758 905.79762279 -181.26374817 926.94540405 C-181.26154934 928.24888206 -181.25935052 929.55236006 -181.25708506 930.8953374 C-181.24601554 937.43448227 -181.23482271 943.97362693 -181.22356856 950.51277149 C-181.13035889 1004.76430212 -181.05877229 1059.01584609 -181.001297 1113.26742554 C-180.341297 1113.26742554 -179.681297 1113.26742554 -179.001297 1113.26742554 C-178.733172 1113.90680054 -178.465047 1114.54617554 -178.188797 1115.20492554 C-177.11461947 1117.5987424 -177.11461947 1117.5987424 -174.001297 1118.26742554 C-173.33463033 1119.60075887 -172.66796366 1120.9340922 -172.001297 1122.26742554 C-171.011297 1122.59742554 -170.021297 1122.92742554 -169.001297 1123.26742554 C-168.33463033 1124.60075887 -167.66796366 1125.9340922 -167.001297 1127.26742554 C-166.011297 1127.59742554 -165.021297 1127.92742554 -164.001297 1128.26742554 C-163.33463033 1129.60075887 -162.66796366 1130.9340922 -162.001297 1132.26742554 C-161.011297 1132.59742554 -160.021297 1132.92742554 -159.001297 1133.26742554 C-158.33463033 1134.60075887 -157.66796366 1135.9340922 -157.001297 1137.26742554 C-156.011297 1137.59742554 -155.021297 1137.92742554 -154.001297 1138.26742554 C-153.33463033 1139.60075887 -152.66796366 1140.9340922 -152.001297 1142.26742554 C-151.011297 1142.59742554 -150.021297 1142.92742554 -149.001297 1143.26742554 C-148.33463033 1144.60075887 -147.66796366 1145.9340922 -147.001297 1147.26742554 C-146.011297 1147.59742554 -145.021297 1147.92742554 -144.001297 1148.26742554 C-143.33463033 1149.60075887 -142.66796366 1150.9340922 -142.001297 1152.26742554 C-141.011297 1152.59742554 -140.021297 1152.92742554 -139.001297 1153.26742554 C-138.33463033 1154.60075887 -137.66796366 1155.9340922 -137.001297 1157.26742554 C-136.011297 1157.59742554 -135.021297 1157.92742554 -134.001297 1158.26742554 C-133.33463033 1159.60075887 -132.66796366 1160.9340922 -132.001297 1162.26742554 C-131.011297 1162.59742554 -130.021297 1162.92742554 -129.001297 1163.26742554 C-128.33463033 1164.60075887 -127.66796366 1165.9340922 -127.001297 1167.26742554 C-126.011297 1167.59742554 -125.021297 1167.92742554 -124.001297 1168.26742554 C-123.671297 1168.92742554 -123.341297 1169.58742554 -123.001297 1170.26742554 C-122.94993408 1120.3849252 -122.90217325 1070.50242302 -122.87426758 1020.61990356 C-122.87385341 1019.88144804 -122.87343924 1019.14299251 -122.87301251 1018.38215955 C-122.86403347 1002.33294589 -122.85572297 986.28373195 -122.84810101 970.23451759 C-122.84435905 962.36381367 -122.84046938 954.49310982 -122.83650208 946.62240601 C-122.83591366 945.44757105 -122.83591366 945.44757105 -122.83531336 944.24900205 C-122.82253278 918.86941872 -122.80000144 893.48985545 -122.77240533 868.11028427 C-122.74409472 842.02617509 -122.72563769 815.942077 -122.71955203 789.85795271 C-122.71868758 786.17247046 -122.71771067 782.48698825 -122.71666527 778.80150604 C-122.716463 778.07616112 -122.71626073 777.35081619 -122.71605233 776.60349111 C-122.71250928 764.93457946 -122.69860075 753.26570216 -122.6808009 741.5968045 C-122.66312119 729.8612955 -122.65664017 718.1258235 -122.66079286 706.39030167 C-122.6627156 700.03348911 -122.65975397 693.67677723 -122.64368057 687.31998253 C-122.62906669 681.49787063 -122.62835448 675.675927 -122.63860031 669.8538073 C-122.63986638 667.74997041 -122.63607361 665.64612296 -122.62664745 663.54230681 C-122.58243926 653.06443085 -122.58111139 643.3087642 -126.001297 633.26742554 C-126.41342169 632.00551215 -126.41342169 632.00551215 -126.83387214 630.71810555 C-127.31842342 629.25721227 -127.81297197 627.79959506 -128.31770325 626.34555054 C-129.18970143 623.69467605 -129.82409557 621.01167153 -130.470047 618.29867554 C-131.05000448 616.08119104 -131.75874224 613.93568543 -132.501297 611.76742554 C-133.68658463 608.30638565 -134.62330376 604.85499713 -135.470047 601.29867554 C-136.05000448 599.08119104 -136.75874224 596.93568543 -137.501297 594.76742554 C-138.68658463 591.30638565 -139.62330376 587.85499713 -140.470047 584.29867554 C-141.05000448 582.08119104 -141.75874224 579.93568543 -142.501297 577.76742554 C-143.68658463 574.30638565 -144.62330376 570.85499713 -145.470047 567.29867554 C-146.05000448 565.08119104 -146.75874224 562.93568543 -147.501297 560.76742554 C-148.68658463 557.30638565 -149.62330376 553.85499713 -150.470047 550.29867554 C-151.05000448 548.08119104 -151.75874224 545.93568543 -152.501297 543.76742554 C-153.68658463 540.30638565 -154.62330376 536.85499713 -155.470047 533.29867554 C-156.05000448 531.08119104 -156.75874224 528.93568543 -157.501297 526.76742554 C-158.68658463 523.30638565 -159.62330376 519.85499713 -160.470047 516.29867554 C-161.05000448 514.08119104 -161.75874224 511.93568543 -162.501297 509.76742554 C-163.68658463 506.30638565 -164.62330376 502.85499713 -165.470047 499.29867554 C-166.05000448 497.08119104 -166.75874224 494.93568543 -167.501297 492.76742554 C-168.68658463 489.30638565 -169.62330376 485.85499713 -170.470047 482.29867554 C-171.05000448 480.08119104 -171.75874224 477.93568543 -172.501297 475.76742554 C-173.68658463 472.30638565 -174.62330376 468.85499713 -175.470047 465.29867554 C-176.05000448 463.08119104 -176.75874224 460.93568543 -177.501297 458.76742554 C-178.68658463 455.30638565 -179.62330376 451.85499713 -180.470047 448.29867554 C-181.05000448 446.08119104 -181.75874224 443.93568543 -182.501297 441.76742554 C-183.68658463 438.30638565 -184.62330376 434.85499713 -185.470047 431.29867554 C-186.05000448 429.08119104 -186.75874224 426.93568543 -187.501297 424.76742554 C-188.68658463 421.30638565 -189.62330376 417.85499713 -190.470047 414.29867554 C-191.05000448 412.08119104 -191.75874224 409.93568543 -192.501297 407.76742554 C-193.46572386 404.95129908 -194.31187375 402.16300319 -195.001297 399.26742554 C-195.8803549 395.58270782 -197.04553324 392.03751397 -198.27082825 388.45492554 C-199.28477105 385.41851929 -200.14799184 382.35245187 -201.001297 379.26742554 C-201.991297 379.26742554 -202.981297 379.26742554 -204.001297 379.26742554 Z M-204.001297 1152.26742554 C-204.001297 1152.92742554 -204.001297 1153.58742554 -204.001297 1154.26742554 C-204.9603595 1154.66961304 -204.9603595 1154.66961304 -205.938797 1155.07992554 C-208.33261386 1156.15410306 -208.33261386 1156.15410306 -209.001297 1159.26742554 C-210.33463033 1159.9340922 -211.66796366 1160.60075887 -213.001297 1161.26742554 C-213.331297 1162.25742554 -213.661297 1163.24742554 -214.001297 1164.26742554 C-215.33463033 1164.9340922 -216.66796366 1165.60075887 -218.001297 1166.26742554 C-218.331297 1167.25742554 -218.661297 1168.24742554 -219.001297 1169.26742554 C-220.33463033 1169.9340922 -221.66796366 1170.60075887 -223.001297 1171.26742554 C-223.331297 1172.25742554 -223.661297 1173.24742554 -224.001297 1174.26742554 C-225.33463033 1174.9340922 -226.66796366 1175.60075887 -228.001297 1176.26742554 C-228.331297 1177.25742554 -228.661297 1178.24742554 -229.001297 1179.26742554 C-230.33463033 1179.9340922 -231.66796366 1180.60075887 -233.001297 1181.26742554 C-233.331297 1182.25742554 -233.661297 1183.24742554 -234.001297 1184.26742554 C-235.33463033 1184.9340922 -236.66796366 1185.60075887 -238.001297 1186.26742554 C-238.331297 1187.25742554 -238.661297 1188.24742554 -239.001297 1189.26742554 C-240.33463033 1189.9340922 -241.66796366 1190.60075887 -243.001297 1191.26742554 C-243.331297 1192.25742554 -243.661297 1193.24742554 -244.001297 1194.26742554 C-245.33463033 1194.9340922 -246.66796366 1195.60075887 -248.001297 1196.26742554 C-248.331297 1197.25742554 -248.661297 1198.24742554 -249.001297 1199.26742554 C-249.991297 1199.76242554 -249.991297 1199.76242554 -251.001297 1200.26742554 C-218.661297 1200.26742554 -186.321297 1200.26742554 -153.001297 1200.26742554 C-153.661297 1199.93742554 -154.321297 1199.60742554 -155.001297 1199.26742554 C-155.310672 1198.60742554 -155.620047 1197.94742554 -155.938797 1197.26742554 C-156.8904816 1194.92134332 -156.8904816 1194.92134332 -160.001297 1194.26742554 C-160.66796366 1192.9340922 -161.33463033 1191.60075887 -162.001297 1190.26742554 C-163.486297 1189.77242554 -163.486297 1189.77242554 -165.001297 1189.26742554 C-165.66796366 1187.9340922 -166.33463033 1186.60075887 -167.001297 1185.26742554 C-168.486297 1184.77242554 -168.486297 1184.77242554 -170.001297 1184.26742554 C-170.66796366 1182.9340922 -171.33463033 1181.60075887 -172.001297 1180.26742554 C-173.486297 1179.77242554 -173.486297 1179.77242554 -175.001297 1179.26742554 C-175.66796366 1177.9340922 -176.33463033 1176.60075887 -177.001297 1175.26742554 C-178.486297 1174.77242554 -178.486297 1174.77242554 -180.001297 1174.26742554 C-180.66796366 1172.9340922 -181.33463033 1171.60075887 -182.001297 1170.26742554 C-183.486297 1169.77242554 -183.486297 1169.77242554 -185.001297 1169.26742554 C-185.66796366 1167.9340922 -186.33463033 1166.60075887 -187.001297 1165.26742554 C-187.991297 1164.93742554 -188.981297 1164.60742554 -190.001297 1164.26742554 C-190.66796366 1162.9340922 -191.33463033 1161.60075887 -192.001297 1160.26742554 C-192.991297 1159.93742554 -193.981297 1159.60742554 -195.001297 1159.26742554 C-195.66796366 1157.9340922 -196.33463033 1156.60075887 -197.001297 1155.26742554 C-197.991297 1154.93742554 -198.981297 1154.60742554 -200.001297 1154.26742554 C-200.001297 1153.60742554 -200.001297 1152.94742554 -200.001297 1152.26742554 C-201.321297 1152.26742554 -202.641297 1152.26742554 -204.001297 1152.26742554 Z " fill="#000000" transform="translate(1062.0012969970703,18.732574462890625)"/>
<path d="M0 0 C4.98937696 3.40792266 8.23684467 7.3256848 9.75 13.1953125 C10.15989924 18.08919233 10.09980437 22.97250056 10.04296875 27.87890625 C10.03736582 29.30379284 10.03309902 30.72868525 10.03010559 32.15357971 C10.01871153 35.88386297 9.98929225 39.61378966 9.95599365 43.34393311 C9.91974555 47.83020409 9.90610564 52.31659503 9.88863373 56.80297089 C9.85965066 63.60066524 9.8021269 70.39757893 9.75 77.1953125 C22.29 77.1953125 34.83 77.1953125 47.75 77.1953125 C47.70359375 72.668125 47.6571875 68.1409375 47.609375 63.4765625 C47.58891968 60.59633102 47.56966289 57.71618999 47.5546875 54.8359375 C47.53084132 50.2712935 47.50273216 45.7069726 47.44824219 41.14257812 C47.40455421 37.45967586 47.38081501 33.77712042 47.37049103 30.09397888 C47.3631405 28.69382778 47.34878702 27.29369414 47.32707977 25.89369202 C47.19286507 16.87298907 47.39722722 10.23946529 53.49609375 3.171875 C59.31597754 -1.4786557 63.64044545 -3.28955479 71.1875 -3.12109375 C77.66194451 -2.32165777 82.68045537 1.19558624 86.75 6.1953125 C90.77244 13.03085129 90.13245503 20.15389136 90.04296875 27.87890625 C90.03736582 29.30379284 90.03309902 30.72868525 90.03010559 32.15357971 C90.01871153 35.88386297 89.98929225 39.61378966 89.95599365 43.34393311 C89.91974555 47.83020409 89.90610564 52.31659503 89.88863373 56.80297089 C89.85965066 63.60066524 89.8021269 70.39757893 89.75 77.1953125 C102.29 77.1953125 114.83 77.1953125 127.75 77.1953125 C127.70359375 72.668125 127.6571875 68.1409375 127.609375 63.4765625 C127.58891968 60.59633102 127.56966289 57.71618999 127.5546875 54.8359375 C127.53084132 50.2712935 127.50273216 45.7069726 127.44824219 41.14257812 C127.40455421 37.45967586 127.38081501 33.77712042 127.37049103 30.09397888 C127.3631405 28.69382778 127.34878702 27.29369414 127.32707977 25.89369202 C127.19286507 16.87298907 127.39722722 10.23946529 133.49609375 3.171875 C139.31597754 -1.4786557 143.64044545 -3.28955479 151.1875 -3.12109375 C157.66194451 -2.32165777 162.68045537 1.19558624 166.75 6.1953125 C169.58706378 11.67215199 170.18836558 15.99383182 170.15405273 22.10888672 C170.16091599 22.97327362 170.16777924 23.83766052 170.17485046 24.72824097 C170.19306367 27.56899722 170.18928839 30.40919821 170.18359375 33.25 C170.18815857 35.23625873 170.19346504 37.22251588 170.19947815 39.20877075 C170.20839881 43.36629666 170.20599845 47.52363037 170.19604492 51.68115234 C170.1845638 56.99274815 170.20475914 62.3036783 170.23396206 67.61518669 C170.25236437 71.71603569 170.25202344 75.8167264 170.24632454 79.91760635 C170.24617178 81.87510231 170.25217838 83.83260931 170.26461601 85.79006577 C170.27959847 88.53477699 170.26879572 91.27827434 170.25170898 94.02294922 C170.26621094 95.22026672 170.26621094 95.22026672 170.28100586 96.44177246 C170.20310639 102.45826035 168.45380191 106.87496548 165.75 112.1953125 C165.06435123 113.67232523 164.38279327 115.15125031 163.70703125 116.6328125 C159.69448333 125.20316746 155.5254408 133.65343 151.0559082 141.99462891 C147.51172822 148.61115113 144.12039333 155.29258943 140.82080078 162.03417969 C139.64123705 164.41482222 138.42780382 166.77683765 137.21484375 169.140625 C136.3714919 170.82506856 135.52902881 172.50995742 134.6875 174.1953125 C134.28080078 174.97245605 133.87410156 175.74959961 133.45507812 176.55029297 C131.26251523 181.01317602 130.37825836 183.94957548 131.36206055 188.99755859 C131.82248228 191.605939 131.91750114 194.12999036 131.99609375 196.77734375 C132.0434668 198.28421753 132.0434668 198.28421753 132.09179688 199.8215332 C132.13916992 201.39874146 132.13916992 201.39874146 132.1875 203.0078125 C132.47959505 211.48537626 133.02416961 219.85086004 134.01708984 228.2734375 C134.79128656 235.01316124 135.15047934 241.746917 135.40820312 248.5246582 C135.53823886 251.75531645 135.68938013 254.85053698 136.25 258.0390625 C137.02985506 262.96189757 137.04036872 267.90624704 137.1875 272.8828125 C137.47866531 281.40248205 138.01904194 289.8087002 139.01708984 298.27294922 C139.79114075 305.01285591 140.15047287 311.74674698 140.40820312 318.5246582 C140.53823886 321.75531645 140.68938013 324.85053698 141.25 328.0390625 C142.02985506 332.96189757 142.04036872 337.90624704 142.1875 342.8828125 C142.47866531 351.40248205 143.01904194 359.8087002 144.01708984 368.27294922 C144.79114075 375.01285591 145.15047287 381.74674698 145.40820312 388.5246582 C145.43978516 389.30929443 145.47136719 390.09393066 145.50390625 390.90234375 C145.52783447 391.5878833 145.5517627 392.27342285 145.57641602 392.97973633 C145.72405714 395.3147396 145.72405714 395.3147396 146.25268555 398.06616211 C147.14174757 403.66022588 146.97649427 409.29218474 147 414.9453125 C147.0309375 416.78222656 147.0309375 416.78222656 147.0625 418.65625 C147.13594686 435.80609188 140.493465 449.94574939 128.88671875 462.28125 C126.75 464.1953125 126.75 464.1953125 124.75 464.1953125 C124.75 464.8553125 124.75 465.5153125 124.75 466.1953125 C112.8924054 475.94489028 98.5171544 479.66123286 83.42578125 479.6640625 C82.28070602 479.67167603 81.1356308 479.67928955 79.95585632 479.68713379 C77.54652063 479.6978757 75.1371386 479.70081216 72.7277832 479.69628906 C69.08919416 479.69531961 65.45273728 479.73695571 61.81445312 479.78125 C44.49790573 479.87039482 30.34032916 478.32831096 15.75 468.1953125 C14.76 467.5353125 13.77 466.8753125 12.75 466.1953125 C12.75 465.5353125 12.75 464.8753125 12.75 464.1953125 C12.18023437 463.96585938 11.61046875 463.73640625 11.0234375 463.5 C0.64167029 457.54207861 -5.45032271 443.13821875 -8.65673828 432.10571289 C-9.81393519 426.42878107 -9.59716092 420.71424227 -9.5 414.9453125 C-9.49484375 413.70523437 -9.4896875 412.46515625 -9.484375 411.1875 C-9.43728851 405.71369573 -9.15958125 400.59284644 -8.25 395.1953125 C-8.05324751 392.66622318 -7.88926627 390.1344678 -7.75 387.6015625 C-7.70939453 386.89181274 -7.66878906 386.18206299 -7.62695312 385.45080566 C-7.49820848 383.19913616 -7.37358014 380.94727099 -7.25 378.6953125 C-7.0870723 375.7263371 -6.91983575 372.75764987 -6.75 369.7890625 C-6.6778125 368.47615234 -6.605625 367.16324219 -6.53125 365.81054688 C-6.27735776 362.54697365 -5.79247334 359.41965203 -5.25 356.1953125 C-5.12202787 354.24934448 -5.02914163 352.30079857 -4.96875 350.3515625 C-4.93136719 349.27003906 -4.89398438 348.18851563 -4.85546875 347.07421875 C-4.82066406 345.95917969 -4.78585938 344.84414063 -4.75 343.6953125 C-4.68074056 341.47644533 -4.60793661 339.2576854 -4.53125 337.0390625 C-4.50095703 336.06130859 -4.47066406 335.08355469 -4.43945312 334.07617188 C-4.25 331.1953125 -4.25 331.1953125 -3.76367188 328.3046875 C-3.17318709 324.73034616 -2.94888927 321.21886114 -2.75 317.6015625 C-2.70939453 316.89181274 -2.66878906 316.18206299 -2.62695312 315.45080566 C-2.49820848 313.19913616 -2.37358014 310.94727099 -2.25 308.6953125 C-2.0870723 305.7263371 -1.91983575 302.75764987 -1.75 299.7890625 C-1.6778125 298.47615234 -1.605625 297.16324219 -1.53125 295.81054688 C-1.27735776 292.54697365 -0.79247334 289.41965203 -0.25 286.1953125 C-0.12202787 284.24934448 -0.02914163 282.30079857 0.03125 280.3515625 C0.08732422 278.72927734 0.08732422 278.72927734 0.14453125 277.07421875 C0.17933594 275.95917969 0.21414062 274.84414063 0.25 273.6953125 C0.31925944 271.47644533 0.39206339 269.2576854 0.46875 267.0390625 C0.49904297 266.06130859 0.52933594 265.08355469 0.56054688 264.07617188 C0.75 261.1953125 0.75 261.1953125 1.23632812 258.3046875 C1.82681291 254.73034616 2.05111073 251.21886114 2.25 247.6015625 C2.3109082 246.53693787 2.3109082 246.53693787 2.37304688 245.45080566 C2.50179152 243.19913616 2.62641986 240.94727099 2.75 238.6953125 C2.9129277 235.7263371 3.08016425 232.75764987 3.25 229.7890625 C3.3221875 228.47615234 3.394375 227.16324219 3.46875 225.81054688 C3.72263986 222.54700436 4.20672642 219.41949938 4.75 216.1953125 C4.87783823 214.27279683 4.97079704 212.3476877 5.03125 210.421875 C5.08732422 208.813125 5.08732422 208.813125 5.14453125 207.171875 C5.17933594 206.06585937 5.21414062 204.95984375 5.25 203.8203125 C5.3195732 201.6248915 5.39241823 199.42957141 5.46875 197.234375 C5.50299072 196.18797852 5.53723145 195.14158203 5.57250977 194.06347656 C5.72342391 191.62477036 6.06966561 189.41571032 6.55859375 187.03125 C6.83135385 181.56491499 4.79821377 177.96834147 2.3125 173.1953125 C1.85311035 172.27540527 1.3937207 171.35549805 0.92041016 170.40771484 C-0.0142324 168.54069749 -0.95720488 166.67782561 -1.90869141 164.81933594 C-3.10019539 162.48837766 -4.2664552 160.14776851 -5.41796875 157.796875 C-8.5483762 151.42128876 -11.8065052 145.12874676 -15.1875 138.8828125 C-19.89989497 130.16429714 -24.13694355 121.21025461 -28.25 112.1953125 C-28.56991283 111.5703913 -28.88982567 110.9454701 -29.21943283 110.3016119 C-31.94864819 104.71209863 -32.83039159 100.21891378 -32.76757812 94.03881836 C-32.7745874 93.17253311 -32.78159668 92.30624786 -32.78881836 91.41371155 C-32.80627927 88.57885728 -32.79481935 85.74501887 -32.78125 82.91015625 C-32.78394809 80.92436025 -32.78783315 78.93856555 -32.79284668 76.95277405 C-32.7987254 72.80294137 -32.79023038 68.65345442 -32.77148438 64.50366211 C-32.748681 59.19872276 -32.7618372 53.89459239 -32.78577423 48.58968258 C-32.80026349 44.4931484 -32.79561213 40.39680443 -32.78526306 36.30026436 C-32.7826052 34.34474147 -32.78583226 32.389201 -32.79518127 30.43369865 C-32.80540022 27.69614099 -32.78977234 24.95987422 -32.76757812 22.22241211 C-32.77567505 21.42374725 -32.78377197 20.6250824 -32.79211426 19.80221558 C-32.69508061 13.30481633 -30.77416458 8.12040703 -26.50390625 3.171875 C-18.33838002 -3.35300277 -9.52370854 -5.49149323 0 0 Z M22.75 119.1953125 C28.81245772 131.99383436 35.154209 144.6633096 41.75 157.1953125 C59.57 157.1953125 77.39 157.1953125 95.75 157.1953125 C106.22206745 138.75736124 106.22206745 138.75736124 114.75 119.1953125 C84.39 119.1953125 54.03 119.1953125 22.75 119.1953125 Z M48.75 199.1953125 C47.07565848 207.93270145 47.07565848 207.93270145 46.37109375 216.52734375 C46.33693359 217.59275391 46.30277344 218.65816406 46.26757812 219.75585938 C46.24115234 220.82900391 46.21472656 221.90214844 46.1875 223.0078125 C46.12723801 225.18109063 46.06354744 227.35427694 45.99609375 229.52734375 C45.97216553 230.47327393 45.9482373 231.4192041 45.92358398 232.39379883 C45.75 235.1953125 45.75 235.1953125 45.26586914 238.07495117 C44.67429666 241.65322276 44.44911184 245.16771596 44.25 248.7890625 C44.20939453 249.49881226 44.16878906 250.20856201 44.12695312 250.93981934 C43.99820848 253.19148884 43.87358014 255.44335401 43.75 257.6953125 C43.5870723 260.6642879 43.41983575 263.63297513 43.25 266.6015625 C43.1778125 267.91447266 43.105625 269.22738281 43.03125 270.58007812 C42.77735776 273.84365135 42.29247334 276.97097297 41.75 280.1953125 C41.62202787 282.14128052 41.52914163 284.08982643 41.46875 286.0390625 C41.43136719 287.12058594 41.39398438 288.20210937 41.35546875 289.31640625 C41.32066406 290.43144531 41.28585937 291.54648437 41.25 292.6953125 C41.18074056 294.91417967 41.10793661 297.1329396 41.03125 299.3515625 C40.98581055 300.81819336 40.98581055 300.81819336 40.93945312 302.31445312 C40.75 305.1953125 40.75 305.1953125 40.26367188 308.0859375 C39.67318709 311.66027884 39.44888927 315.17176386 39.25 318.7890625 C39.20939453 319.49881226 39.16878906 320.20856201 39.12695312 320.93981934 C38.99820848 323.19148884 38.87358014 325.44335401 38.75 327.6953125 C38.5870723 330.6642879 38.41983575 333.63297513 38.25 336.6015625 C38.1778125 337.91447266 38.105625 339.22738281 38.03125 340.58007812 C37.77735776 343.84365135 37.29247334 346.97097297 36.75 350.1953125 C36.62202787 352.14128052 36.52914163 354.08982643 36.46875 356.0390625 C36.43136719 357.12058594 36.39398438 358.20210937 36.35546875 359.31640625 C36.30326172 360.98896484 36.30326172 360.98896484 36.25 362.6953125 C36.18074056 364.91417967 36.10793661 367.1329396 36.03125 369.3515625 C36.00095703 370.32931641 35.97066406 371.30707031 35.93945312 372.31445312 C35.75 375.1953125 35.75 375.1953125 35.27246094 378.00830078 C34.19749059 384.56561988 34.02538966 391.24286851 33.65527344 397.87109375 C33.55193863 399.66742961 33.44128531 401.46335974 33.32324219 403.25878906 C33.15185947 405.86974255 33.00325434 408.48115306 32.859375 411.09375 C32.80328064 411.88671478 32.74718628 412.67967957 32.68939209 413.49667358 C32.35546671 420.35576228 33.86380687 425.45175886 37.8125 431.1953125 C38.451875 431.8553125 39.09125 432.5153125 39.75 433.1953125 C40.41 433.1953125 41.07 433.1953125 41.75 433.1953125 C41.75 433.8553125 41.75 434.5153125 41.75 435.1953125 C47.03782688 437.35988228 51.69845372 437.48709474 57.3125 437.4609375 C58.67677124 437.46380768 58.67677124 437.46380768 60.06860352 437.46673584 C61.98486611 437.46809227 63.90113806 437.46443383 65.81738281 437.45605469 C68.74044555 437.4453475 71.66289374 437.45596844 74.5859375 437.46875 C76.45312635 437.46742831 78.32031482 437.46486572 80.1875 437.4609375 C81.49086304 437.46701019 81.49086304 437.46701019 82.82055664 437.47320557 C87.52809719 437.43705945 91.32330445 437.00737852 95.75 435.1953125 C95.75 434.5353125 95.75 433.8753125 95.75 433.1953125 C96.3275 433.0096875 96.905 432.8240625 97.5 432.6328125 C100.8116366 430.51704467 102.35270839 427.76948604 103.75 424.1953125 C105.47340885 416.1573415 104.57787516 407.80029574 104.02587891 399.67138672 C103.87439219 397.43634487 103.73504997 395.20079207 103.59765625 392.96484375 C103.21607886 386.98061167 102.73892153 381.11324035 101.75 375.1953125 C101.63358733 373.40164048 101.55194394 371.60539747 101.50390625 369.80859375 C101.4565332 368.292052 101.4565332 368.292052 101.40820312 366.74487305 C101.36083008 365.14252808 101.36083008 365.14252808 101.3125 363.5078125 C101.02133469 354.98814295 100.48095806 346.5819248 99.48291016 338.11767578 C98.70885925 331.37776909 98.34952713 324.64387802 98.09179688 317.8659668 C97.96176114 314.63530855 97.81061987 311.54008802 97.25 308.3515625 C96.47014494 303.42872743 96.45963128 298.48437796 96.3125 293.5078125 C96.02133469 284.98814295 95.48095806 276.5819248 94.48291016 268.11767578 C93.70885925 261.37776909 93.34952713 254.64387802 93.09179688 247.8659668 C93.06021484 247.08133057 93.02863281 246.29669434 92.99609375 245.48828125 C92.97216553 244.8027417 92.9482373 244.11720215 92.92358398 243.41088867 C92.77414805 241.06910302 92.77414805 241.06910302 92.25 238.28125 C91.77075211 235.3233919 91.57960717 232.51995153 91.50390625 229.52734375 C91.47103516 228.46837891 91.43816406 227.40941406 91.40429688 226.31835938 C91.34364305 224.13095002 91.28629038 221.94344635 91.23242188 219.75585938 C91.19826172 218.69044922 91.16410156 217.62503906 91.12890625 216.52734375 C91.1038501 215.57577393 91.07879395 214.6242041 91.05297852 213.64379883 C90.62614099 208.78555549 89.62241676 203.99360465 88.75 199.1953125 C75.55 199.1953125 62.35 199.1953125 48.75 199.1953125 Z " fill="#000000" transform="translate(231.25,641.8046875)"/>
<path d="M0 0 C1.0986438 -0.03311279 1.0986438 -0.03311279 2.21948242 -0.06689453 C9.0908752 -0.04038513 14.11544305 2.42547539 19.375 6.75 C24.54404987 13.10054698 25.00075774 18.79272675 24.95449829 26.69863892 C24.96043955 27.7178966 24.96638081 28.73715428 24.97250211 29.78729856 C24.98878372 33.19506203 24.98384694 36.60245993 24.97900391 40.01025391 C24.98638456 42.45634884 24.99508975 44.90244009 25.00502014 47.348526 C25.02351554 52.61189983 25.03298034 57.87517134 25.03432083 63.13856888 C25.03636319 70.75391195 25.05584685 78.36913388 25.07971875 85.9844362 C25.11809543 98.34800983 25.14392125 110.71157524 25.16113281 123.07519531 C25.17787164 135.07032428 25.19805506 147.06543527 25.22460938 159.06054688 C25.2262428 159.79964269 25.22787622 160.53873851 25.22955914 161.30023117 C25.2475268 169.3693137 25.26687908 177.43839202 25.28786278 185.50746727 C25.2897042 186.21662178 25.29154562 186.9257763 25.29344284 187.65642034 C25.30082233 190.49130348 25.30821621 193.32618656 25.31578664 196.1610692 C25.33790979 204.45876291 25.35571937 212.75643928 25.36573945 221.05415688 C25.37287599 226.87146517 25.38457185 232.68875815 25.39787102 238.50605583 C25.40243469 240.89376878 25.40527787 243.28148571 25.40629387 245.6692028 C25.40786256 248.92293817 25.41543512 252.17660646 25.42446899 255.43032837 C25.42340074 256.37983545 25.42233249 257.32934253 25.42123187 258.30762255 C25.43864207 262.50125312 25.58387255 266.33840334 26.5625 270.4375 C26.73831581 273.27287871 26.88301087 276.09991683 27 278.9375 C27.31106326 285.47773685 27.98309585 291.80549649 29.08984375 298.265625 C29.78657684 302.94122224 30.05133852 307.62662628 30.31640625 312.34375 C30.48801594 315.33457791 30.48801594 315.33457791 31.0625 317.8125 C31.76479474 321.49954737 31.8457642 325.19649502 32 328.9375 C32.31106326 335.47773685 32.98309585 341.80549649 34.08984375 348.265625 C34.78657684 352.94122224 35.05133852 357.62662628 35.31640625 362.34375 C35.48801594 365.33457791 35.48801594 365.33457791 36.0625 367.8125 C36.7647901 371.499523 36.84594278 375.19650349 37 378.9375 C37.24790651 384.20183672 37.60876408 389.30743775 38.5625 394.5 C39.65302205 400.97704008 40.00526551 407.4477445 40.3125 414 C40.36921875 415.04099854 40.4259375 416.08199707 40.484375 417.15454102 C41.14503151 433.53546755 36.74660348 448.40595197 26.5625 461.4375 C25.9025 461.4375 25.2425 461.4375 24.5625 461.4375 C24.2325 462.4275 23.9025 463.4175 23.5625 464.4375 C22.9025 464.4375 22.2425 464.4375 21.5625 464.4375 C21.2325 465.4275 20.9025 466.4175 20.5625 467.4375 C19.9025 467.4375 19.2425 467.4375 18.5625 467.4375 C18.5625 468.0975 18.5625 468.7575 18.5625 469.4375 C8.42388557 476.99240301 -3.58889925 482.49457723 -16.40454102 482.59863281 C-17.36646866 482.60824036 -18.3283963 482.6178479 -19.31947327 482.62774658 C-20.86483009 482.6341214 -20.86483009 482.6341214 -22.44140625 482.640625 C-23.51567368 482.64632507 -24.5899411 482.65202515 -25.69676208 482.65789795 C-27.97043884 482.66733447 -30.2441292 482.67387657 -32.51782227 482.67773438 C-35.96330295 482.68739708 -39.40817589 482.71841628 -42.85351562 482.75 C-45.07030899 482.7565351 -47.28710658 482.76178358 -49.50390625 482.765625 C-50.51997452 482.7779718 -51.53604279 482.7903186 -52.582901 482.80303955 C-66.65883747 482.76010908 -78.7332687 478.4832279 -89.74609375 469.76953125 C-91.25299608 468.58280217 -92.8415502 467.50146653 -94.4375 466.4375 C-94.4375 465.7775 -94.4375 465.1175 -94.4375 464.4375 C-95.4275 464.1075 -96.4175 463.7775 -97.4375 463.4375 C-97.4375 462.7775 -97.4375 462.1175 -97.4375 461.4375 C-98.0975 461.4375 -98.7575 461.4375 -99.4375 461.4375 C-101.73398649 458.8760343 -102.4375 457.95782428 -102.4375 454.4375 C-103.0975 454.4375 -103.7575 454.4375 -104.4375 454.4375 C-111.6951806 440.69667387 -113.82737133 429.67829963 -113.125 414.1875 C-113.07794922 413.07431396 -113.03089844 411.96112793 -112.98242188 410.81420898 C-112.67433857 404.32211405 -112.08526069 398.02669711 -110.91015625 391.62890625 C-110.17230428 386.646881 -109.98638048 381.64217036 -109.77929688 376.61352539 C-109.65327981 373.70709615 -109.52679932 370.88237541 -108.95336914 368.02563477 C-108.4219001 365.35923471 -108.15198717 362.7681699 -107.9375 360.05859375 C-107.855 359.05505859 -107.7725 358.05152344 -107.6875 357.01757812 C-107.52052453 354.91864433 -107.353859 352.81968587 -107.1875 350.72070312 C-107.06375 349.21733398 -107.06375 349.21733398 -106.9375 347.68359375 C-106.82921875 346.31738892 -106.82921875 346.31738892 -106.71875 344.92358398 C-106.46392121 342.6710479 -105.98942531 340.62968528 -105.4375 338.4375 C-105.30840656 337.05623351 -105.21611601 335.67114987 -105.15625 334.28515625 C-105.11886719 333.50849609 -105.08148438 332.73183594 -105.04296875 331.93164062 C-105.00816406 331.12919922 -104.97335937 330.32675781 -104.9375 329.5 C-104.86808866 327.90739544 -104.79526383 326.31493538 -104.71875 324.72265625 C-104.68845703 324.02019775 -104.65816406 323.31773926 -104.62695312 322.59399414 C-104.41287554 320.15720633 -103.91710106 317.83550528 -103.4375 315.4375 C-103.24497558 313.64712321 -103.07959687 311.85367681 -102.9375 310.05859375 C-102.855 309.05505859 -102.7725 308.05152344 -102.6875 307.01757812 C-102.52052453 304.91864433 -102.353859 302.81968587 -102.1875 300.72070312 C-102.105 299.71845703 -102.0225 298.71621094 -101.9375 297.68359375 C-101.82921875 296.31738892 -101.82921875 296.31738892 -101.71875 294.92358398 C-101.46399615 292.67171029 -100.99348657 290.62808147 -100.4375 288.4375 C-100.25761558 285.68498282 -100.11394663 282.9426188 -100 280.1875 C-99.58934043 271.53260571 -98.64107086 263.01440305 -97.4375 254.4375 C-98.09363281 254.18484375 -98.74976563 253.9321875 -99.42578125 253.671875 C-128.72840235 241.66198101 -128.72840235 241.66198101 -136.578125 229.69921875 C-137.81165747 226.45278557 -137.73287669 223.2979281 -137.6875 219.875 C-137.68290771 219.16118164 -137.67831543 218.44736328 -137.67358398 217.71191406 C-137.58827521 212.69282048 -136.98898433 207.97282261 -135.9375 203.05859375 C-135.40678892 200.27650678 -135.18204777 197.57553304 -135 194.75 C-134.63448521 189.69260449 -133.87311106 184.78923755 -132.9375 179.8125 C-132.80674072 179.11294189 -132.67598145 178.41338379 -132.54125977 177.69262695 C-131.57287836 172.70825672 -131.57287836 172.70825672 -130.4375 170.4375 C-130.334375 169.2 -130.23125 167.9625 -130.125 166.6875 C-129.58221417 161.36141407 -128.07826785 156.4516774 -126.546875 151.3359375 C-125.11113789 146.43679948 -124.0058506 141.46149751 -122.9206543 136.47460938 C-121.97844494 132.2798348 -120.72078542 128.36994418 -119.15795898 124.36621094 C-118.07368456 121.46354473 -117.29855312 118.49200376 -116.5 115.5 C-115.13647205 110.6317386 -113.58969569 106.11154248 -111.421875 101.55078125 C-110.40006571 99.35713512 -109.54324717 97.13822608 -108.6875 94.875 C-106.04741385 88.18049584 -102.71005579 81.82086161 -99.44238281 75.41699219 C-98.40303087 73.36960018 -97.38042898 71.31438297 -96.359375 69.2578125 C-94.87117389 66.2763137 -93.32151569 63.34241678 -91.6875 60.4375 C-91.25953125 59.674375 -90.8315625 58.91125 -90.390625 58.125 C-90.07609375 57.568125 -89.7615625 57.01125 -89.4375 56.4375 C-88.7775 56.4375 -88.1175 56.4375 -87.4375 56.4375 C-87.19 55.73625 -86.9425 55.035 -86.6875 54.3125 C-85.26569762 51.04235452 -83.56503712 48.296378 -81.4375 45.4375 C-80.7775 45.4375 -80.1175 45.4375 -79.4375 45.4375 C-79.23125 44.756875 -79.025 44.07625 -78.8125 43.375 C-77.00854973 39.52110625 -74.5364655 36.35962236 -71.4375 33.4375 C-70.7775 33.4375 -70.1175 33.4375 -69.4375 33.4375 C-69.4375 32.7775 -69.4375 32.1175 -69.4375 31.4375 C-68.0625 29.8125 -68.0625 29.8125 -66.4375 28.4375 C-65.7775 28.4375 -65.1175 28.4375 -64.4375 28.4375 C-64.4375 27.7775 -64.4375 27.1175 -64.4375 26.4375 C-62.7578125 24.9296875 -62.7578125 24.9296875 -60.5625 23.3125 C-59.48355469 22.50425781 -59.48355469 22.50425781 -58.3828125 21.6796875 C-56.4375 20.4375 -56.4375 20.4375 -54.4375 20.4375 C-54.4375 19.7775 -54.4375 19.1175 -54.4375 18.4375 C-46.72190878 12.80014061 -38.34433982 8.81685981 -29.4375 5.4375 C-28.63699219 5.0971875 -27.83648438 4.756875 -27.01171875 4.40625 C-18.38512013 1.15982139 -9.15745625 0.13911025 0 0 Z M-38.125 60.25 C-38.65407959 60.72993408 -39.18315918 61.20986816 -39.72827148 61.7043457 C-41.00859877 62.90349705 -42.22913252 64.16586721 -43.4375 65.4375 C-43.4375 66.0975 -43.4375 66.7575 -43.4375 67.4375 C-44.0975 67.4375 -44.7575 67.4375 -45.4375 67.4375 C-45.7675 68.7575 -46.0975 70.0775 -46.4375 71.4375 C-47.0975 71.4375 -47.7575 71.4375 -48.4375 71.4375 C-49.79983884 72.8876405 -49.79983884 72.8876405 -51.0625 74.75 C-51.73152344 75.67232422 -51.73152344 75.67232422 -52.4140625 76.61328125 C-53.68214281 78.52494556 -53.68214281 78.52494556 -53.4375 81.4375 C-54.0975 81.4375 -54.7575 81.4375 -55.4375 81.4375 C-55.78941406 82.14132812 -56.14132812 82.84515625 -56.50390625 83.5703125 C-56.99761719 84.55773437 -57.49132812 85.54515625 -58 86.5625 C-58.5465625 87.65820312 -59.093125 88.75390625 -59.65625 89.8828125 C-60.83541311 92.23596695 -62.02280974 94.58501516 -63.21875 96.9296875 C-68.48773473 107.30588989 -73.04075029 117.58632415 -76.3359375 128.7578125 C-77.16208873 131.51750915 -78.01973605 134.25466218 -78.9140625 136.9921875 C-81.67414974 145.46733923 -84.12726961 153.80527163 -85.8515625 162.55859375 C-86.4375 165.4375 -86.4375 165.4375 -87.5625 169.25 C-88.46849828 172.55042232 -88.83162225 175.65592987 -89.16015625 179.05078125 C-89.73657115 184.01119682 -90.81084069 188.90954781 -92.01171875 193.75390625 C-92.19347656 194.49511719 -92.37523437 195.23632812 -92.5625 196 C-92.73007812 196.64066406 -92.89765625 197.28132812 -93.0703125 197.94140625 C-93.63276933 201.76491596 -93.50296049 205.58000687 -93.4375 209.4375 C-90.85513888 210.81435131 -88.27171055 212.18912681 -85.6875 213.5625 C-84.91631836 213.97338867 -84.14513672 214.38427734 -83.35058594 214.80761719 C-78.83805002 217.20167966 -74.29683052 219.48654468 -69.6875 221.6875 C-60.18644707 226.47696521 -59.38901548 229.57083244 -55.4375 240.4375 C-42.8975 240.4375 -30.3575 240.4375 -17.4375 240.4375 C-17.4375 176.7475 -17.4375 113.0575 -17.4375 47.4375 C-25.24594525 47.4375 -32.57615984 55.19524035 -38.125 60.25 Z M-57.4375 282.4375 C-58.54296492 284.64842983 -58.61533262 285.97792545 -58.71875 288.4296875 C-58.75613281 289.21730469 -58.79351562 290.00492188 -58.83203125 290.81640625 C-58.86683594 291.64011719 -58.90164063 292.46382812 -58.9375 293.3125 C-59.00670865 294.93505824 -59.07950553 296.55746823 -59.15625 298.1796875 C-59.20168945 299.26032471 -59.20168945 299.26032471 -59.24804688 300.36279297 C-59.4375 302.4375 -59.4375 302.4375 -59.92382812 304.35986328 C-60.54952741 306.89061466 -60.74183675 309.3379739 -60.9375 311.9375 C-61.02 312.989375 -61.1025 314.04125 -61.1875 315.125 C-61.27 316.218125 -61.3525 317.31125 -61.4375 318.4375 C-61.60103999 320.60440491 -61.76758515 322.77108564 -61.9375 324.9375 C-62.0096875 325.8965625 -62.081875 326.855625 -62.15625 327.84375 C-62.40548637 330.14226315 -62.87122159 332.20422531 -63.4375 334.4375 C-63.5666789 335.83050128 -63.65892139 337.22730179 -63.71875 338.625 C-63.75613281 339.40617187 -63.79351562 340.18734375 -63.83203125 340.9921875 C-63.86683594 341.79914063 -63.90164063 342.60609375 -63.9375 343.4375 C-64.0066964 345.04183145 -64.07949153 346.64601257 -64.15625 348.25 C-64.18654297 348.95769531 -64.21683594 349.66539062 -64.24804688 350.39453125 C-64.4375 352.4375 -64.4375 352.4375 -64.92382812 354.35546875 C-65.54860543 356.88783607 -65.74173463 359.33661728 -65.9375 361.9375 C-66.06125 363.5153125 -66.06125 363.5153125 -66.1875 365.125 C-66.27 366.218125 -66.3525 367.31125 -66.4375 368.4375 C-66.60103999 370.60440491 -66.76758515 372.77108564 -66.9375 374.9375 C-67.0096875 375.8965625 -67.081875 376.855625 -67.15625 377.84375 C-67.40548637 380.14226315 -67.87122159 382.20422531 -68.4375 384.4375 C-68.5666789 385.83050128 -68.65892139 387.22730179 -68.71875 388.625 C-68.75613281 389.40617187 -68.79351562 390.18734375 -68.83203125 390.9921875 C-68.86683594 391.79914063 -68.90164063 392.60609375 -68.9375 393.4375 C-69.0066964 395.04183145 -69.07949153 396.64601257 -69.15625 398.25 C-69.18654297 398.95769531 -69.21683594 399.66539062 -69.24804688 400.39453125 C-69.4375 402.4375 -69.4375 402.4375 -69.94018555 404.38720703 C-70.96162181 408.59831245 -70.70783544 413.00047075 -70.75 417.3125 C-70.77900391 418.29347656 -70.80800781 419.27445313 -70.83789062 420.28515625 C-70.89124249 426.36726899 -70.47763975 429.80539839 -66.4375 434.4375 C-60.4338421 439.97933806 -55.26965243 440.74690826 -47.41015625 440.73828125 C-46.54361923 440.74256638 -45.67708221 440.7468515 -44.7842865 440.75126648 C-42.95621614 440.75699543 -41.12812299 440.75752064 -39.30004883 440.75317383 C-36.51278564 440.75001449 -33.7265852 440.77348832 -30.93945312 440.79882812 C-29.1588555 440.80110143 -27.37825503 440.80180447 -25.59765625 440.80078125 C-24.76935806 440.809991 -23.94105988 440.81920074 -23.08766174 440.82868958 C-15.17347818 440.76583141 -10.12473403 437.73696808 -4.4375 432.4375 C-2.56094909 429.42259001 -2.18951388 427.15470606 -2.20703125 423.62890625 C-2.20896484 422.71689453 -2.21089844 421.80488281 -2.21289062 420.86523438 C-2.22513672 419.91970703 -2.23738281 418.97417969 -2.25 418 C-2.25064453 417.05833984 -2.25128906 416.11667969 -2.25195312 415.14648438 C-2.27993651 410.74065553 -2.5433802 406.75720547 -3.4375 402.4375 C-3.61331581 399.60212129 -3.75801087 396.77508317 -3.875 393.9375 C-4.18606326 387.39726315 -4.85809585 381.06950351 -5.96484375 374.609375 C-6.66157684 369.93377776 -6.92633852 365.24837372 -7.19140625 360.53125 C-7.36301594 357.54042209 -7.36301594 357.54042209 -7.9375 355.0625 C-8.63979474 351.37545263 -8.7207642 347.67850498 -8.875 343.9375 C-9.18606326 337.39726315 -9.85809585 331.06950351 -10.96484375 324.609375 C-11.66157684 319.93377776 -11.92633852 315.24837372 -12.19140625 310.53125 C-12.36138217 307.54731477 -12.36138217 307.54731477 -12.93359375 305.10546875 C-13.82611116 300.37996958 -13.83915893 295.56465746 -14.04296875 290.76757812 C-14.13191719 286.46601712 -14.13191719 286.46601712 -15.4375 282.4375 C-29.2975 282.4375 -43.1575 282.4375 -57.4375 282.4375 Z " fill="#000000" transform="translate(556.4375,638.5625)"/>
</svg>
